<?xml version="1.0" encoding="UTF-8" standalone="no"?>
<!-- Created with Inkscape (http://www.inkscape.org/) -->

<svg
   xmlns:dc="http://purl.org/dc/elements/1.1/"
   xmlns:cc="http://creativecommons.org/ns#"
   xmlns:rdf="http://www.w3.org/1999/02/22-rdf-syntax-ns#"
   xmlns:svg="http://www.w3.org/2000/svg"
   xmlns="http://www.w3.org/2000/svg"
   xmlns:sodipodi="http://sodipodi.sourceforge.net/DTD/sodipodi-0.dtd"
   xmlns:inkscape="http://www.inkscape.org/namespaces/inkscape"
   width="243.99269mm"
   height="154.00551mm"
   viewBox="0 0 243.99269 154.00551"
   version="1.1"
   id="svg8"
   inkscape:version="0.92.2 (5c3e80d, 2017-08-06)"
   sodipodi:docname="map.svg">
  <defs
     id="defs2" />
  <sodipodi:namedview
     id="base"
     pagecolor="#ffffff"
     bordercolor="#666666"
     borderopacity="1.0"
     inkscape:pageopacity="0.0"
     inkscape:pageshadow="2"
     inkscape:zoom="0.35"
     inkscape:cx="382.75384"
     inkscape:cy="448.85351"
     inkscape:document-units="mm"
     inkscape:current-layer="layer1"
     showgrid="false"
     fit-margin-top="0"
     fit-margin-left="0"
     fit-margin-right="0"
     fit-margin-bottom="0"
     inkscape:window-width="1366"
     inkscape:window-height="705"
     inkscape:window-x="-8"
     inkscape:window-y="-8"
     inkscape:window-maximized="1" />
  <metadata
     id="metadata5">
    <rdf:RDF>
      <cc:Work
         rdf:about="">
        <dc:format>image/svg+xml</dc:format>
        <dc:type
           rdf:resource="http://purl.org/dc/dcmitype/StillImage" />
        <dc:title></dc:title>
      </cc:Work>
    </rdf:RDF>
  </metadata>
  <g
     inkscape:label="Layer 1"
     inkscape:groupmode="layer"
     id="layer1"
     transform="translate(124.32684,-113.58698)">
    <path
       inkscape:connector-curvature="0"
       style="fill:#ffffff;stroke:#999999;stroke-width:0.1984375;stroke-miterlimit:4;stroke-dasharray:none;stroke-opacity:1"
       id="HI"
       d="m -64.0424,249.08378 0.513273,-0.941 0.598821,-0.0855 0.08555,0.21387 -0.556049,0.81268 z m 2.694691,-0.98377 1.62537,0.68436 0.556045,-0.0855 0.427728,-1.02655 -0.17109,-0.89822 -1.112096,-0.12832 -1.069322,0.4705 z m 8.126844,2.65191 0.983773,1.45428 0.641594,-0.0855 0.29941,-0.12831 0.384956,0.34218 0.983776,-0.0428 0.256638,-0.38496 -0.769914,-0.4705 -0.513273,-0.98378 -0.556048,-0.941 -1.539822,0.76991 z m 5.346607,2.35251 0.342183,-0.51327 1.240411,0.25663 0.171093,-0.12832 1.625367,0.17109 -0.08554,0.34219 -0.684366,0.38495 -1.154866,-0.0855 z m 1.411504,1.36873 0.513276,1.02655 0.812681,-0.29941 0.08555,-0.42773 -0.427728,-0.55605 -0.983777,-0.0855 z m 1.839233,-0.29941 0.598821,-0.76991 1.240411,0.64159 1.154867,0.29941 1.154869,0.72714 v 0.51328 l -0.941001,0.4705 -1.28319,0.25663 -0.64159,-0.38495 z m 4.405606,4.10619 0.427728,-0.34218 0.898231,0.42773 2.010323,0.94101 0.898231,0.55604 0.427726,0.64159 0.513275,1.15487 1.069322,0.68437 -0.08555,0.34218 -1.026549,0.85546 -1.112094,0.38495 -0.384956,-0.17109 -0.812686,0.4705 -0.641591,0.85546 -0.59882,0.76991 -0.470504,-0.0428 -0.941001,-0.68437 -0.08555,-1.19764 0.17109,-0.64159 -0.427728,-1.49705 -0.556048,-0.4705 -0.04277,-0.68437 0.598821,-0.25663 0.556048,-0.81269 0.128318,-0.25663 -0.427728,-0.47051 z" />
    <path
       inkscape:connector-curvature="0"
       style="fill:#ffffff;stroke:#999999;stroke-width:0.1984375;stroke-miterlimit:4;stroke-dasharray:none;stroke-opacity:1"
       id="AK"
       d="m -83.889008,231.718 -0.08554,22.58407 0.427726,0.25664 0.812686,0.0428 0.384953,-0.29941 h 0.684366 l 0.04278,0.76991 1.839232,1.79646 0.128321,0.68437 0.898228,-0.51328 0.171093,-0.0428 0.08554,-0.81268 0.384953,-0.42773 0.299413,-0.0428 0.513273,-0.38496 0.812684,0.55605 0.171093,0.76991 0.513273,0.29941 0.29941,0.64159 1.026552,0.4705 0.898228,1.5826 0.727136,1.02654 0.598821,0.72715 0.384958,0.98377 1.325957,0.4705 1.368735,0.55605 0.256635,1.15487 0.128317,0.81268 -0.256635,0.89823 -0.470503,0.59882 -0.427728,-0.21386 -0.384956,-0.81269 -0.727138,-0.38495 -0.470501,-0.29941 -0.213865,0.21386 0.384955,0.72714 0.04277,0.98378 -0.29941,0.12831 -0.513274,-0.51327 -0.556045,-0.34218 0.128317,0.42773 0.342181,0.4705 -0.213863,0.21386 c 0,0 -0.213863,-0.0855 -0.34218,-0.25664 -0.128323,-0.17109 -0.556049,-0.89822 -0.556049,-0.89822 l -0.256638,-0.59883 c 0,0 -0.08554,0.34219 -0.256637,0.25664 -0.171093,-0.0856 -0.342183,-0.38495 -0.342183,-0.38495 l 0.4705,-0.51328 -0.384955,-0.38495 v -1.32596 h -0.213863 l -0.213863,0.89822 -0.299413,0.12833 -0.256635,-0.98378 -0.171093,-0.98378 -0.213865,-0.12832 0.08555,1.49706 v 0.2994 l -0.384959,-0.34218 -0.941001,-1.58259 -0.556048,-0.12832 -0.17109,-0.98378 -0.427728,-0.76991 -0.427731,-0.29941 v -0.59882 l 0.556048,-0.34218 -0.128317,-0.0856 -0.684366,0.17109 -0.898232,-0.64159 -0.684366,-0.76991 -1.283184,-0.68437 -1.069324,-0.68436 0.342186,-0.85546 v -0.42773 l -0.470504,0.42773 -0.769911,0.29941 -0.983776,-0.29941 -1.497052,-0.64159 h -1.454274 l -0.171091,0.12832 -1.710914,-1.02655 -0.556049,-0.0856 -0.727138,-1.53982 -0.941004,0.0855 -0.941004,0.38496 0.12832,1.19764 0.299408,-0.76991 0.256641,0.0855 -0.384959,1.15487 0.855457,-0.72714 0.171092,0.42773 -1.026549,1.15487 -0.342183,-0.0856 -0.128317,-0.51327 -0.342183,-0.21387 -0.342183,0.29941 -0.727139,-0.4705 -0.812686,0.55605 -0.470498,0.55605 -0.898231,0.55605 -1.240414,-0.0428 -0.128318,-0.55604 0.983774,-0.1711 v -0.34218 l -0.598821,-0.17109 0.25664,-0.64159 0.598819,-1.02655 v -0.4705 l 0.04277,-0.21387 1.154869,-0.59882 0.256636,0.34218 h 0.727141 l -0.342183,-0.68436 -0.983779,-0.0856 -1.325957,0.72714 -0.641593,0.89823 -0.470501,0.68437 -0.29941,0.59882 -1.112094,0.38495 -0.812686,0.68437 -0.0856,0.42773 0.598824,0.25664 0.213866,0.55604 -0.72714,0.85546 -1.71091,1.11209 -2.0531,1.1121 -0.55605,0.29941 -1.41151,0.29941 -1.4115,0.59882 0.4705,0.34218 -0.38496,0.38496 -0.12831,0.29941 -0.72714,-0.25664 -0.85546,0.0428 -0.21386,0.59882 h -0.25664 l 0.0855,-0.64159 -0.941,0.34218 -0.76991,0.25664 -0.89823,-0.34218 -0.76991,0.51327 h -0.85546 l -0.55605,0.34219 -0.42772,0.21386 -0.55605,-0.0855 -0.68437,-0.29941 -0.59882,0.1711 -0.25663,0.25663 -0.42773,-0.29941 v -0.51327 l 0.81268,-0.34219 1.66814,0.1711 1.15487,-0.42773 0.55605,-0.55605 0.76991,-0.17109 0.4705,-0.21387 0.72714,0.0428 0.42773,0.34219 0.25663,-0.0855 0.59882,-0.72714 0.81269,-0.25664 0.89823,-0.17109 0.34218,-0.0856 0.17109,0.12832 h 0.21387 l 0.34218,-0.98378 1.06932,-0.38495 0.51328,-0.98378 0.59882,-1.19764 0.42773,-0.38495 0.0855,-0.68437 -0.42773,0.34218 -0.89823,0.1711 -0.17109,-0.6416 -0.34218,-0.0855 -0.25664,0.25663 -0.0428,0.76992 -0.38496,-0.0428 -0.38495,-1.53982 -0.34219,0.34218 -0.29941,-0.12832 -0.0855,-0.51327 -1.06932,0.0428 -0.55605,0.29941 -0.68437,-0.0855 0.38496,-0.38496 0.12832,-0.68437 -0.17109,-0.51327 0.38495,-0.25664 0.34218,-0.0428 -0.17109,-0.4705 v -1.15487 l -0.25663,-0.25664 -0.21387,0.38496 h -1.62537 l -0.38495,-0.34218 -0.17109,-1.02655 -0.55605,-0.94101 v -0.25663 l 0.55605,-0.21387 0.0428,-0.55605 0.29941,-0.2994 -0.21387,-0.12832 -0.34218,0.12832 -0.29941,-0.72714 0.25664,-1.32596 1.19764,-0.85546 0.68436,-0.42773 0.51328,-0.98377 0.72714,-0.34219 0.68436,0.29942 0.0855,0.64159 0.64159,-0.0856 0.85546,-0.64159 0.42773,0.17109 0.25663,0.17109 h 0.42773 l 0.59882,-0.34218 0.21387,-1.15487 c 0,0 0.0855,-0.76991 0.25664,-0.89823 0.17109,-0.12832 0.25663,-0.25664 0.25663,-0.25664 l -0.29941,-0.51327 -0.68436,0.21386 -0.85546,0.21387 -0.51328,-0.12832 -0.941,-0.4705 -1.32596,-0.0428 -0.941,-0.98377 0.12832,-1.02655 0.17109,-0.64159 -0.55605,-0.4705 -0.51327,-0.98378 0.12832,-0.21386 1.79646,-0.12832 h 0.55604 l 0.25664,0.25663 h 0.17109 l -0.0428,-0.42773 1.02655,-0.17109 0.68436,0.0856 0.38496,0.29941 -0.38496,0.55605 -0.12831,0.38495 0.72714,0.42773 1.32596,0.4705 0.4705,-0.25663 -0.59882,-1.15487 -0.25664,-0.85546 0.25664,-0.21386 -0.89823,-0.51328 -0.12832,-0.29941 0.12832,-0.42772 -0.21387,-1.02655 -0.76991,-1.24042 -0.64159,-1.11209 0.76991,-0.51328 h 0.85546 l 0.4705,0.1711 1.11209,-0.0428 0.98378,-0.941 0.29941,-0.81268 0.98378,-0.6416 0.42772,0.25664 0.72714,-0.17109 0.983778,-0.55605 0.299413,-0.0428 0.256636,0.21386 1.197639,-0.0428 0.727138,-0.81268 h 0.299411 l 0.941004,0.64159 0.513273,0.55604 -0.128318,0.29941 0.17109,0.29942 0.427731,-0.42773 1.026549,0.0855 0.08554,0.98378 0.513276,0.38495 1.882005,0.17109 1.668142,1.1121 0.384953,-0.25664 1.368734,0.68437 0.556046,-0.17109 0.513276,-0.21387 1.283184,0.51328 z m -30.454282,7.65634 0.55605,1.41151 -0.0428,0.25663 -0.76992,-0.0855 -0.4705,-1.06933 -0.4705,-0.38495 h -0.64159 l -0.0428,-0.68437 0.4705,-0.64159 0.29941,0.64159 0.38495,0.38496 z m -0.68436,8.85398 0.98377,0.21387 0.98378,0.25663 0.21386,0.25664 -0.42773,0.98378 -0.81268,-0.0428 -0.89823,-0.94101 z m -5.47493,-3.72123 0.29941,0.68436 0.29941,0.42773 -0.29941,0.21386 -0.55605,-0.81268 v -0.51327 z m -3.63569,19.33333 0.89823,-0.59882 0.89823,-0.25664 0.68436,0.0856 0.12832,0.42772 0.51327,0.12832 0.51328,-0.51327 -0.0856,-0.42773 0.72714,-0.17109 0.76991,0.68437 -0.29941,0.4705 -1.15486,0.29941 -0.72714,-0.12832 -0.98378,-0.29941 -1.15487,0.38495 -0.42772,0.0856 z m 12.96017,-1.19764 0.42773,0.51327 0.55605,-0.42772 -0.38496,-0.34219 z m 0.76991,0.81268 0.29941,-0.59882 0.55605,0.0855 -0.21386,0.51327 z m 6.24484,-0.51327 0.38496,0.4705 0.25664,-0.29941 -0.21387,-0.51327 z m 2.30974,-3.29351 0.29941,1.53982 0.76991,0.21387 1.325958,-0.76992 1.154867,-0.68436 -0.427726,-0.64159 0.128318,-0.6416 -0.556048,0.34219 -0.769911,-0.21387 0.427727,-0.29941 0.513274,0.21386 1.026549,-0.4705 0.12832,-0.38495 -0.641593,-0.21387 0.213862,-0.51327 -0.727138,0.51327 -1.240409,0.94101 -1.28319,0.76991 z m 11.206488,-5.26106 0.641593,-0.38496 -0.256638,-0.4705 -0.4705,0.25664 z" />
    <path
       inkscape:connector-curvature="0"
       style="fill:#ffffff;fill-opacity:1;stroke:#999999;stroke-width:0.1984375;stroke-miterlimit:4;stroke-dasharray:none;stroke-opacity:1"
       id="FL"
       d="m 75.321363,227.87301 0.599456,1.93638 0.986816,2.57764 1.411496,2.48082 0.983772,1.66813 1.283181,1.45427 1.069316,0.98377 0.427726,0.76991 -0.299408,0.34218 -0.213863,0.34218 0.769906,1.96755 0.769908,0.7699 0.684364,1.4115 0.940998,1.53982 1.197634,2.1814 0.342183,2.01032 0.128318,3.16518 0.17109,0.4705 -0.08555,0.89822 -0.641591,0.34218 0.08554,0.51327 -0.17109,0.51328 0.08555,0.64159 0.128318,0.51327 -0.727134,0.85545 -0.812681,0.38496 -1.026543,0.0428 -0.384956,0.42773 -0.641588,0.25663 -0.342183,-0.12832 -0.299408,-0.25663 -0.08554,-0.76991 -0.213865,-0.89823 -0.898226,-1.36872 -0.940999,-0.59882 -1.026543,-0.0855 -0.213863,0.34218 -0.812681,-1.15486 -0.17109,-0.941 -0.684363,-1.06932 -0.470498,-0.29941 -0.427728,0.55605 -0.470498,-0.0856 -0.556046,-1.32595 -0.769908,-1.02655 -0.769909,-1.41149 -0.68436,-0.81268 -0.940999,-0.98378 0.556043,-0.64159 0.855454,-1.45427 -0.04277,-0.42772 -1.197634,-0.25664 -0.427728,0.17109 0.08555,0.17109 0.684361,0.25664 -0.384953,1.19763 -0.213863,0.12832 -0.470501,-1.06931 -0.34218,-1.28319 -0.08554,-0.72713 0.384953,-1.24041 v -2.52359 l -0.812681,-0.98377 -0.34218,-0.81268 -1.368727,-0.34218 -0.513271,-0.17109 -0.427728,-0.68436 -0.898226,-0.42773 -0.299407,-0.89823 -0.727136,-0.25663 -0.641591,-0.98377 -1.112089,-0.38496 -0.769908,-0.38495 h -0.684361 l -1.069319,0.21386 -0.04277,0.51327 0.213865,0.25664 -0.12832,0.29941 -0.812678,-0.0428 -0.983771,0.941 -0.941002,0.51327 h -1.026543 l -0.855454,0.34218 -0.08555,-0.72714 -0.427725,-0.51327 -0.769909,-0.29941 -0.427725,-0.38495 -2.138635,-1.02655 -2.010315,-0.47049 -1.154861,0.17109 -1.582589,0.12831 -1.58259,0.55605 -0.920549,0.16218 -0.06295,-2.12983 -0.684364,-0.51327 -0.4705,-0.4705 0.08554,-0.81269 2.694681,-0.34218 6.758093,-0.7699 1.796455,-0.17109 1.438275,0.0741 0.684363,1.02655 0.384953,0.38495 2.142638,0.13632 2.862725,-0.17109 5.69182,-0.34219 1.440847,-0.17842 1.35138,0.0541 0.112932,0.76991 0.590815,0.21386 0.06216,-1.22502 -0.404341,-1.10409 0.346181,-0.38096 1.469662,0.12032 z m 3.319306,35.03218 0.641593,-0.17109 0.342181,-0.0642 0.384958,-0.6202 0.620204,-0.42773 0.342183,0.12832 0.449115,0.0855 0.106931,0.27802 -0.919612,0.3208 -1.112097,0.38496 -0.620204,0.32079 z m 3.571531,-1.32596 0.320797,0.27803 0.727138,-0.55605 1.411502,-1.11209 0.983774,-1.02655 0.662979,-1.75368 0.256638,-0.44912 0.04277,-0.89823 -0.192479,0.12832 -0.256635,0.74852 -0.384959,1.21903 -0.855456,1.39012 -1.154864,1.11209 -0.898228,0.51327 z"
       sodipodi:nodetypes="cccccccccccccccccccccccccccccccccccccccccccccccccccccccccccccccccccccccccccccccccccccccccccccccccccccccccccccccccccccccccccccccccccccccccccccc" />
    <path
       inkscape:connector-curvature="0"
       style="fill:#ffffff;fill-opacity:1;stroke:#999999;stroke-width:0.1984375;stroke-miterlimit:4;stroke-dasharray:none;stroke-opacity:1"
       id="NH"
       d="m 107.33127,149.36637 0.22992,-0.28483 0.28845,-0.87075 -0.67285,-0.24168 -0.12832,-0.81269 -1.02655,-0.29941 -0.0855,-0.72713 -1.92478,-6.20205 -1.21746,-3.84784 -0.23735,-0.001 -0.17109,0.42773 -0.17109,-0.12832 -0.25664,-0.25663 -0.38495,0.51327 -0.0128,1.3314 0.0824,1.49945 0.51327,0.72714 v 1.06931 l -0.98377,1.33953 -0.68436,0.29941 v 0.29941 l 0.29941,0.4705 v 2.26696 l -0.21387,2.43805 -0.0428,1.28318 0.25664,0.34218 -0.0428,1.19764 -0.12832,0.4705 0.25633,0.18765 4.44173,-1.17066 0.57544,-0.1594 0.48778,-0.73378 z"
       sodipodi:nodetypes="ccccccccccccccccccccccccccccccccc" />
    <g
       id="MI"
       style="fill:#ffffff;fill-opacity:1;stroke:#999999;stroke-width:0.75;stroke-miterlimit:4;stroke-dasharray:none;stroke-opacity:1"
       transform="matrix(0.26458333,0,0,0.26458333,-125.71347,111.68315)">
      <path
         inkscape:connector-curvature="0"
         sodipodi:nodetypes="cccccccccccsccccccccccccccccccccccccccccccccccccccccccccccccccccccccccccccccccccccccccccccccccccc"
         d="m 697.86007,177.23689 -3.23321,-8.24469 -2.26325,-9.05298 -2.4249,-3.23321 -2.58657,-1.77827 -1.6166,1.13163 -3.87986,1.77826 -1.93992,5.01148 -2.74823,3.71819 -1.13162,0.64664 -1.45495,-0.64664 c 0,0 -2.58656,-1.45495 -2.4249,-2.10159 0.16166,-0.64664 0.48498,-5.01147 0.48498,-5.01147 l 3.39487,-1.29329 0.8083,-3.39487 0.64664,-2.58656 2.42491,-1.61661 -0.32332,-10.02295 -1.61661,-2.26324 -1.29328,-0.80831 -0.8083,-2.10158 0.8083,-0.8083 1.6166,0.32332 0.16166,-1.61661 -2.4249,-2.26325 -1.29329,-2.58656 h -2.58656 l -4.5265,-1.45495 -5.49645,-3.39487 h -2.74823 l -0.64664,0.64665 -0.96997,-0.48499 -3.07154,-2.26324 -2.90989,1.77826 -2.90989,2.26325 0.32332,3.55653 0.96996,0.32332 2.10159,0.48498 0.48498,0.8083 -2.58657,0.80831 -2.58656,0.32332 -1.45495,1.77826 -0.32332,2.10159 0.32332,1.6166 0.32332,5.49646 -3.55653,2.10159 -0.64664,-0.16167 v -4.20317 l 1.29328,-2.4249 0.64665,-2.42491 -0.80831,-0.8083 -1.93992,0.8083 -0.96997,4.20317 -2.74822,1.13162 -1.77827,1.93993 -0.16166,0.96996 0.64664,0.8083 -0.64664,2.58657 -2.26325,0.48498 v 1.13163 l 0.80831,2.4249 -1.13163,6.1431 -1.6166,4.04151 0.64664,4.68816 0.48498,1.13162 -0.8083,2.42491 -0.32332,0.8083 -0.32332,2.74823 3.55653,5.98143 2.90989,6.46642 1.45494,4.84982 -0.8083,4.68815 -0.96996,5.98144 -2.42491,5.17313 -0.32332,2.74823 -3.25887,3.08515 4.40861,-0.16205 21.41849,-2.26325 7.27784,-0.98706 0.0964,1.66635 6.85194,-1.21246 10.29808,-1.50313 3.8542,-0.46091 0.13805,-0.58755 0.16166,-1.45494 2.10158,-3.71819 2.00056,-1.73785 -0.22229,-5.05189 1.59699,-1.59699 1.09062,-0.34294 0.22228,-3.55653 1.53577,-3.03112 1.05079,0.60622 0.16166,0.64664 0.80831,0.16166 1.93992,-0.96996 z"
         id="MI-"
         style="fill:#ffffff;fill-opacity:1;stroke:#999999;stroke-width:0.75;stroke-miterlimit:4;stroke-dasharray:none;stroke-opacity:1" />
      <path
         inkscape:connector-curvature="0"
         sodipodi:nodetypes="ccccccccccccccsccccccccccccccccccccccccccccccccccccccccccccccccccccccccccccccccccccccccccccccccccccccccccccccc"
         inkscape:label="#SP-"
         style="fill:#ffffff;fill-opacity:1;stroke:#999999;stroke-width:0.75;stroke-miterlimit:4;stroke-dasharray:none;stroke-opacity:1"
         id="SP-"
         d="m 581.61931,82.059006 1.82899,-2.057604 2.17192,-0.800181 5.37264,-3.886597 2.28622,-0.571559 0.45726,0.457254 -5.14402,5.14402 -3.31504,1.943289 -2.05761,0.914496 z m 86.17438,32.128184 0.64664,2.50574 3.23322,0.16166 1.29329,-1.21246 c 0,0 -0.0808,-1.45494 -0.40415,-1.61661 -0.32333,-0.16166 -1.61661,-1.8591 -1.61661,-1.8591 l -2.18242,0.24249 -1.61662,0.16166 -0.32332,1.13163 z m -100.3016,-2.97401 0.71628,-0.5804 2.74823,-0.80831 3.55653,-2.26324 v -0.96997 l 0.64665,-0.64664 5.98143,-0.96996 2.42491,-1.93993 4.36483,-2.10158 0.16166,-1.293286 1.93993,-2.909889 1.77826,-0.808302 1.29329,-1.778265 2.26324,-2.263247 4.36484,-2.424907 4.68815,-0.484981 1.13162,1.131623 -0.32332,0.969963 -3.71819,0.969963 -1.45494,3.071549 -2.26325,0.808302 -0.48498,2.424907 -2.42491,3.23321 -0.32332,2.58657 0.8083,0.48498 0.96997,-1.13162 3.55653,-2.90989 1.29328,1.29328 h 2.26325 l 3.23321,0.96996 1.45494,1.13163 1.45494,3.07155 2.74823,2.74822 3.87985,-0.16166 1.45495,-0.96996 1.6166,1.29328 1.61661,0.48499 1.29328,-0.80831 h 1.13162 l 1.61661,-0.96996 4.04151,-3.55653 3.39487,-1.13162 6.62808,-0.32332 4.52649,-1.93993 2.58657,-1.29328 1.45495,0.16166 v 5.65811 l 0.48498,0.32332 2.90988,0.80831 1.93993,-0.48499 6.1431,-1.6166 1.13162,-1.13162 1.45495,0.48498 v 6.9514 l 3.23321,3.07155 1.29328,0.64664 1.29328,0.96996 -1.29328,0.32332 -0.8083,-0.32332 -3.71819,-0.48498 -2.10159,0.64664 -2.26325,-0.16166 -3.23321,1.45495 h -1.77826 l -5.81978,-1.29329 -5.17313,0.16166 -1.93993,2.58657 -6.9514,0.64664 -2.42491,0.8083 -1.13162,3.07155 -1.29328,1.13163 -0.48498,-0.16166 -1.45495,-1.61661 -4.52649,2.42491 h -0.64664 l -1.13163,-1.61661 -0.8083,0.16166 -1.93992,4.36484 -0.96997,4.04151 -3.18112,7.0008 -1.17676,-1.03427 -1.37174,-1.03132 -1.94078,-10.28802 -3.54448,-1.37005 -2.05258,-2.28623 -12.12036,-2.74348 -2.85527,-1.02964 -8.23042,-2.17274 -7.88999,-1.14312 z" />
    </g>
    <path
       inkscape:connector-curvature="0"
       style="fill:#ffffff;fill-opacity:1;stroke:#999999;stroke-width:0.1984375;stroke-miterlimit:4;stroke-dasharray:none;stroke-opacity:1"
       id="VT"
       d="m 97.722961,152.4443 0.08379,-1.41436 -0.764834,-2.85331 -0.17109,-0.0855 -0.769911,-0.34218 0.213863,-0.76991 -0.213863,-0.55604 -0.714388,-1.22766 0.256638,-1.02655 -0.213866,-1.36873 -0.641591,-1.71091 -0.21314,-1.30242 6.990131,-1.78112 0.0817,1.46108 0.50701,0.72555 v 1.06932 l -0.98085,1.33826 -0.68436,0.30233 -0.003,0.29648 0.3466,0.40194 -0.0823,2.14258 -0.16125,2.44974 -0.0603,1.47028 0.25664,0.34218 -0.0428,1.20933 -0.12831,0.44712 0.26833,0.19239 -1.967854,0.39865 z"
       sodipodi:nodetypes="ccccccccccccccccccccccccccccc" />
    <path
       inkscape:connector-curvature="0"
       style="fill:#ffffff;fill-opacity:1;stroke:#999999;stroke-width:0.1984375;stroke-miterlimit:4;stroke-dasharray:none;stroke-opacity:1"
       id="ME"
       d="m 118.45455,132.54044 0.51327,0.55605 0.59882,0.98377 v 0.51327 l -0.55605,1.24041 -0.51327,0.17109 -0.89823,0.81268 -1.28318,1.45427 c 0,0 -0.17109,0 -0.34218,0 -0.17109,0 -0.25663,-0.55604 -0.25663,-0.55604 l -0.4705,0.0428 -0.25664,0.38495 -0.64159,0.38496 -0.25663,0.38495 0.42772,0.38495 -0.12832,0.1711 -0.12831,0.72713 -0.51328,-0.0428 v -0.42773 l -0.0855,-0.34218 -0.38495,0.0855 -0.4705,-0.85546 -0.55605,0.34218 0.34218,0.38496 0.0855,0.29941 -0.21386,0.34218 0.0855,0.81268 0.0428,0.42772 -0.42772,0.68437 -0.76991,0.12831 -0.0855,0.76991 -1.4115,0.81268 -0.34218,0.12832 -0.42772,-0.38495 -0.81268,0.941 0.25663,0.85545 -0.38495,0.34218 -0.0428,1.15486 -0.29721,1.65612 -0.65147,-0.30584 -0.12832,-0.81268 -1.02654,-0.29941 -0.0855,-0.72714 -1.92477,-6.20205 -1.24317,-3.87343 0.37585,-0.0313 0.40053,0.10845 v -0.68436 l 0.34615,-1.18969 0.68436,-1.2404 0.38496,-1.06932 -0.51327,-0.64159 v -1.58259 l 0.21386,-0.25664 0.21386,-0.72713 -0.0428,-0.38495 -0.0428,-1.28318 0.4705,-1.28318 0.76991,-2.3525 0.55604,-1.11209 h 0.34218 l 0.34218,0.0428 v 0.29941 l 0.34218,0.59882 0.72714,0.17109 0.21386,-0.21386 v -0.25664 l 1.06932,-0.76991 0.4705,-0.4705 0.38495,0.0428 1.58259,0.64159 0.51327,0.25663 2.39527,7.91294 h 1.58259 l 0.21387,0.51328 0.0428,1.28318 0.7699,0.59881 h 0.21387 l 0.0428,-0.12831 -0.12832,-0.29941 z m -5.5382,7.97654 0.40635,-0.40634 0.36357,0.27802 0.1497,0.64159 -0.44911,0.23525 z m 1.77508,-1.56121 0.4705,0.49189 c 0,0 0.34218,0.0214 0.34218,-0.0642 0,-0.0856 0.0642,-0.53466 0.0642,-0.53466 l 0.23525,-0.21386 -0.21387,-0.47051 -0.53466,0.19248 z"
       sodipodi:nodetypes="ccccccccsccccccccccccccccccccccccccccccccccccccccccccccccccccccccccccccccccccccccccccccccsccccc" />
    <path
       inkscape:connector-curvature="0"
       style="fill:#ffffff;fill-opacity:1;stroke:#999999;stroke-width:0.1984375;stroke-miterlimit:4;stroke-dasharray:none;stroke-opacity:1"
       id="RI"
       d="m 105.55088,159.01588 -0.97784,-3.95711 1.65875,-0.48819 0.57973,0.50988 0.87485,1.14318 0.71117,1.16472 -0.79358,0.42989 -0.34218,-0.0428 -0.2994,0.4705 -0.6416,0.51327 z"
       sodipodi:nodetypes="ccccccccccc" />
    <path
       inkscape:connector-curvature="0"
       style="fill:#ffffff;fill-opacity:1;stroke:#999999;stroke-width:0.1984375;stroke-miterlimit:4;stroke-dasharray:none;stroke-opacity:1"
       id="NY"
       d="m 93.991087,161.62209 -0.29941,-0.25664 -0.684366,-0.0428 -0.598816,-0.51327 -0.431432,-1.62166 -0.915051,0.0239 -0.646565,-0.71654 -5.129032,1.15938 -11.377554,2.30973 -1.99222,0.32491 -0.195305,-1.71141 0.377852,-0.29776 0.34218,-0.29941 0.256638,-0.42773 0.470498,-0.29941 0.513273,-0.4705 0.128317,-0.42772 0.556043,-0.72714 0.299411,-0.25663 -0.04277,-0.25664 -0.342183,-0.81268 -0.470498,-0.0428 -0.513273,-1.62536 0.769909,-0.4705 1.154861,-0.38496 1.069319,-0.34218 0.855453,-0.12832 1.668132,-0.0428 0.513273,0.34218 0.427726,0.0428 0.556045,-0.34219 0.684364,-0.2994 1.368723,-0.12832 0.556046,-0.4705 0.470498,-0.85546 0.427728,-0.51327 h 0.556043 l 0.513273,-0.29941 0.04277,-0.59881 -0.384953,-0.55605 -0.08555,-0.38495 0.299408,-0.55605 v -0.38495 h -0.470501 l -0.470498,-0.21386 -0.213863,-0.29941 -0.04277,-0.68437 1.539814,-1.45427 0.17109,-0.21386 0.384956,-0.76991 0.769908,-1.19763 0.727136,-0.98377 0.556043,-0.64159 0.638995,-0.48303 0.815277,-0.32965 1.454269,-0.34219 0.855453,0.0428 1.197637,-0.38496 2.001623,-0.54799 0.137528,1.31753 0.641593,1.71092 0.213863,1.36873 -0.256636,1.02654 0.684364,1.19764 0.213862,0.55604 -0.213862,0.76991 0.769911,0.34219 0.17109,0.0855 0.812684,2.90855 -0.141894,1.3387 -0.128318,2.86578 0.213863,1.45427 0.213863,0.941 0.384955,1.92478 v 2.13863 l -0.29941,0.59882 0.486656,0.52726 0.210754,0.44408 -0.513271,0.4705 0.08554,0.34219 0.342181,-0.0856 0.384955,-0.34218 0.598816,-0.68436 0.29941,-0.17109 0.427722,0.17109 0.59882,0.0428 2.09586,-1.02654 0.76991,-0.72714 0.34218,-0.38495 1.11209,0.42772 -0.89823,0.941 -1.02654,0.76991 -1.882,1.4115 -0.68436,0.25663 -1.539815,0.51327 -1.069316,0.29941 -0.310817,-0.141 -0.06456,-0.97592 0.128317,-0.72714 -0.04277,-0.55605 -0.744408,-0.44952 -1.197637,-0.25664 -1.026546,-0.29941 z" />
    <path
       inkscape:connector-curvature="0"
       style="fill:#ffffff;fill-opacity:1;stroke:#999999;stroke-width:0.1984375;stroke-miterlimit:4;stroke-dasharray:none;stroke-opacity:1"
       id="PA"
       d="m 92.600506,171.13292 0.346186,-0.0717 0.616355,-0.33159 0.320643,-0.65698 0.427728,-0.59882 0.855454,-0.81268 v -0.21386 l -0.641591,-0.42773 -0.941001,-0.64159 -0.256635,-0.68437 -0.727139,-0.0855 -0.04277,-0.29941 -0.213863,-0.72714 0.598821,-0.29941 0.04277,-0.64159 -0.342185,-0.34218 0.04277,-0.42773 0.513276,-0.81268 v -0.81268 l 0.713748,-0.70006 -0.243491,-0.17859 -0.667829,-0.051 -0.607084,-0.51327 -0.410083,-1.61821 -0.927253,0.0266 -0.649613,-0.71526 -4.786575,1.11066 -11.377554,2.30973 -2.352503,0.38496 -0.164219,-1.72545 -1.418836,1.34081 -0.342183,0.12832 -1.111856,0.7961 0.770139,5.06345 0.656606,2.57423 0.945038,5.09627 0.865005,-0.16872 3.160073,-0.39753 10.034754,-2.02809 3.935997,-0.747 2.196134,-0.42925 0.07067,-0.0631 0.556048,-0.42773 z"
       sodipodi:nodetypes="cccccccccccccccccccccccccccccccccccccccccccc" />
    <path
       inkscape:connector-curvature="0"
       style="fill:#ffffff;fill-opacity:1;stroke:#999999;stroke-width:0.1984375;stroke-miterlimit:4;stroke-dasharray:none;stroke-opacity:1"
       id="NJ"
       d="m 93.805874,161.54657 -0.614508,0.72344 v 0.81268 l -0.513276,0.81268 -0.04277,0.42773 0.342186,0.34218 -0.04277,0.6416 -0.598821,0.29941 0.213862,0.72713 0.04277,0.29941 0.727138,0.0855 0.256636,0.68436 0.941001,0.64159 0.641591,0.42773 v 0.21386 l -0.789308,0.71347 -0.427728,0.59881 -0.384956,0.72714 -0.598818,0.34218 -0.122356,0.42399 -0.06416,0.3208 -0.161192,0.6897 0.288996,0.59378 0.855454,0.7699 1.283179,0.59882 1.069316,0.17109 0.04277,0.38495 -0.213863,0.25664 0.08554,0.72714 h 0.213863 l 0.556045,-0.64159 0.213863,-1.28318 0.727136,-1.06932 0.812681,-1.71091 0.299408,-1.45427 -0.171091,-0.29941 -0.04277,-2.48081 -0.427728,-0.89823 -0.299408,0.21387 -0.727136,0.0855 -0.128317,-0.12831 0.29941,-0.25664 0.556043,-0.51327 0.01669,-0.28941 -0.101703,-0.90854 0.151704,-0.72714 -0.03108,-0.52096 -0.742829,-0.46312 -1.347295,-0.31108 -1.094698,-0.36556 z"
       sodipodi:nodetypes="ccccccccccccccccccccccccccccccccccccccccccccccccccc" />
    <path
       inkscape:connector-curvature="0"
       style="fill:#ffffff;fill-opacity:1;stroke:#999999;stroke-width:0.1984375;stroke-linecap:butt;stroke-miterlimit:4;stroke-dasharray:none;stroke-opacity:1"
       id="DE"
       d="m 92.733433,172.08199 0.09745,-0.56803 0.09924,-0.44742 -0.429419,0.10524 -0.427424,0.12371 -0.583739,0.4668 0.455115,1.33427 0.598821,1.49704 0.556043,2.56637 0.42773,1.66813 1.325954,-0.0428 1.625103,-0.31239 -0.599078,-1.95428 -0.256637,0.12832 -0.940999,-0.64159 -0.470498,-1.24041 -0.513273,-0.941 -0.832676,-0.75943 -0.228642,-0.55513 z"
       sodipodi:nodetypes="cccccccccccccccccccc" />
    <path
       inkscape:connector-curvature="0"
       style="fill:#ffffff;fill-opacity:1;stroke:#999999;stroke-width:0.1984375;stroke-miterlimit:4;stroke-dasharray:none;stroke-opacity:1"
       id="MD"
       d="m 96.481428,178.46789 -1.589762,0.31851 -1.360726,0.0311 -0.487775,-1.83153 -0.509273,-2.42605 -0.680672,-1.63736 -0.340884,-1.16373 -1.985968,0.42925 -3.935997,0.74701 -9.909024,1.99784 0.299323,1.326 0.256635,1.49704 0.08554,-0.0855 0.556049,-0.64159 0.598815,-0.69259 0.641591,-0.16287 0.384958,-0.38495 0.470498,-0.68437 0.34218,0.1711 0.769909,-0.0855 0.684366,-0.55604 0.530989,-0.38451 0.488217,-0.12832 0.435068,0.29896 0.769908,0.38496 0.513271,0.4705 0.320797,0.40634 1.090705,0.44911 v 0.76991 l 1.454271,0.34218 0.3028,0.1434 0.373565,-0.53666 0.762522,0.52127 -0.338183,0.65668 -0.202478,1.05454 -0.470498,0.68436 v 0.55605 l 0.171091,0.4705 1.339836,0.35869 1.140646,-0.0163 0.812678,0.25663 0.556046,0.0856 0.256635,-0.55605 -0.384953,-0.55604 v -0.4705 l -0.641591,-0.55605 -0.556043,-1.45426 0.34218,-1.4115 -0.04277,-0.55605 -0.34218,-0.34218 c 0,0 0.384952,-0.42772 0.384952,-0.59882 0,-0.17109 0.128318,-0.55604 0.128318,-0.55604 l 0.513273,-0.34218 0.513271,-0.42773 0.128317,0.25664 -0.384953,0.42772 -0.34218,0.98378 0.08555,0.2994 0.470498,0.0855 0.128318,1.45427 -0.556043,0.25664 0.08554,0.94099 0.128317,-0.0428 0.299408,-0.51327 0.427728,0.4705 -0.427728,0.34218 -0.08554,0.89823 0.684363,0.89822 1.026544,0.12832 0.427728,-0.21386 0.856337,1.10673 0.359397,0.1419 1.76045,-0.74003 0.531172,-1.06465 z m -4.225285,2.38885 0.299408,0.66298 0.04277,0.4705 0.299411,0.49188 c 0,0 0.235251,-0.23525 0.235251,-0.32079 0,-0.0855 -0.192476,-0.81269 -0.192476,-0.81269 l -0.192479,-0.6202 z"
       sodipodi:nodetypes="ccccccccccccccccccccccccccccccccccccccccccccccccccsccccccccccccccccccccccccccccsccc" />
    <path
       inkscape:connector-curvature="0"
       style="fill:#ffffff;fill-opacity:1;stroke:#999999;stroke-width:0.1984375;stroke-miterlimit:4;stroke-dasharray:none;stroke-opacity:1"
       id="VA"
       d="m 94.324306,182.08055 -0.03808,-0.51515 1.70747,-0.67466 -0.203838,0.85139 -0.77257,0.99989 -0.110619,1.21333 0.122171,0.89706 -0.48365,1.31713 -0.57263,0.50698 -0.389028,-1.22788 0.117976,-1.44174 0.419893,-1.10677 z m 0.883759,7.48807 -15.391918,3.32725 -9.902553,1.39675 -1.766975,-0.0993 -0.684014,0.50968 -1.941811,0.0584 -2.217767,0.25868 -2.887916,0.4272 2.770037,-1.48463 -0.0035,-0.54899 0.402179,-0.56783 2.792355,-3.04309 1.044236,1.18466 1.000921,0.25506 0.672958,-0.30171 0.591931,-0.34691 0.671144,0.35547 1.035624,-0.37776 0.496552,-1.20553 0.68816,0.14288 0.755449,-0.5639 0.476057,0.1306 0.748032,-0.97276 0.09214,-0.55115 -0.254969,-0.3375 0.265316,-0.49388 1.395484,-3.24833 0.163187,-1.5174 0.325144,-0.13852 0.576403,0.64634 1.041363,-0.0797 0.510437,-2.00385 0.739243,-0.1484 0.277746,-0.72524 0.682578,-0.62094 0.73338,-1.50685 0.02246,-1.34079 2.598608,1.01145 c 0.180141,0.0901 0.220366,-1.33592 0.220366,-1.33592 l 0.966406,0.42289 0.01807,0.77739 1.530416,0.34382 0.564343,0.31121 0.439188,0.5439 -0.173183,0.96537 -0.515261,0.68553 0.02907,0.5448 0.155829,0.49025 1.317294,0.3356 1.177732,0.0106 0.811961,0.25364 0.514221,0.0818 0.189126,0.81715 0.844138,0.1065 0.229676,0.31751 -0.116281,1.24092 0.36373,0.29171 -0.126722,0.51075 0.325282,0.20896 -0.05868,0.36634 -0.712785,-0.0251 0.02355,0.42744 0.603512,0.40821 0.03216,0.37357 0.469136,0.47238 0.130119,0.66784 -0.675492,0.36547 0.415984,0.39537 1.534853,-0.44604 z"
       sodipodi:nodetypes="ccccccccccccccccccccccccccccccccccccccccccccccccccccccccccccccccccccccccccccccccccc" />
    <path
       inkscape:connector-curvature="0"
       style="fill:#ffffff;fill-opacity:1;stroke:#999999;stroke-width:0.1984375;stroke-miterlimit:4;stroke-dasharray:none;stroke-opacity:1"
       id="WV"
       d="m 75.683527,174.90992 0.294219,1.30824 0.28666,1.59579 0.56364,-0.68272 0.598815,-0.81268 0.671613,-0.16287 0.384956,-0.38495 0.4705,-0.68436 0.382318,0.17109 0.769908,-0.0856 0.684366,-0.55604 0.53099,-0.38451 0.488217,-0.12832 0.344996,0.26894 0.963943,0.48197 0.513273,0.4705 0.363569,0.34218 -0.201538,1.46975 -1.54382,-0.67237 -1.123223,-0.42916 -0.02676,1.37013 -0.72698,1.46493 -0.669404,0.64205 -0.315407,0.72744 -0.699447,0.13232 -0.237554,0.953 -0.276021,1.04502 -1.04993,0.0901 -0.61482,-0.64529 -0.283409,0.14801 -0.167396,1.44719 -0.357265,0.93517 -1.31191,2.89851 0.23725,0.3071 -0.05447,0.50497 -0.743132,1.02776 -0.478499,-0.14401 -0.785297,0.57143 -0.672671,-0.15139 -0.528963,1.20532 c 0,0 -0.862359,0.37842 -1.037937,0.36188 -0.04247,-0.004 -0.653282,-0.33049 -0.653282,-0.33049 l -0.618204,0.36496 -0.637593,0.27633 -0.990783,-0.23525 -0.296704,-0.30911 -0.580025,-0.79993 -0.831476,-0.52602 -0.452853,-0.95865 -1.133708,-0.91762 -0.171093,-0.59882 -0.684363,-0.38496 -0.213866,-0.42772 -0.06416,-1.39012 0.577431,-0.0214 0.513276,-0.21386 0.04277,-0.72714 0.427725,-0.38495 0.04277,-1.32596 0.256635,-1.02654 0.342183,-0.17109 0.34218,0.29941 0.128321,0.4705 0.4705,-0.25664 0.128318,-0.42773 -0.299408,-0.4705 v -0.64159 l 0.256635,-0.34218 0.598818,-0.89823 0.342181,-0.38495 0.556048,0.12832 0.598816,-0.42773 0.812681,-0.89823 0.598821,-1.02654 0.08555,-1.49705 0.128317,-1.32595 v -1.24041 l -0.299408,-0.81268 0.256636,-0.38496 0.339587,-0.34218 0.923727,5.24592 1.225288,-0.19874 z"
       sodipodi:nodetypes="ccccccccccccccccccccccccccccccccccccccccscccccccccccccccccccccccccccccccccccccccccc" />
    <path
       inkscape:connector-curvature="0"
       style="fill:#ffffff;fill-opacity:1;stroke:#999999;stroke-width:0.1984375;stroke-miterlimit:4;stroke-dasharray:none;stroke-opacity:1"
       id="OH"
       d="m 68.841259,162.8346 -1.612249,1.07245 -1.026544,0.59882 -0.898226,0.98377 -1.069316,1.02654 -0.855453,0.21387 -0.769909,0.12831 -1.454271,0.68437 -0.556043,0.0428 -0.898226,-0.81268 -1.368727,0.17109 -0.684361,-0.38495 -0.629991,-0.35741 -1.294492,0.18611 -2.694681,0.42773 -2.965151,0.57804 0.342183,3.87093 0.4705,3.63568 0.684361,6.20205 0.149707,1.27824 1.090705,-0.0341 0.64159,-0.21387 0.890006,0.39771 0.547817,1.15486 1.359678,-0.005 0.500523,0.56057 0.465976,-0.0173 0.671616,-0.35493 0.662561,0.0983 1.434381,0.1277 0.456927,-0.56427 0.62062,-0.34218 0.547817,-0.18014 0.17109,0.72714 0.470504,0.25663 0.919609,0.62021 0.577432,-0.0214 0.352721,-0.1303 0.04887,-0.73066 0.419459,-0.38496 0.02625,-1.26807 c 0,0 0.270923,-1.08719 0.270923,-1.08719 l 0.343765,-0.15909 0.349607,0.30367 0.142386,0.44901 0.454853,-0.27449 0.116147,-0.38649 -0.295458,-0.50351 0.01754,-0.61236 0.198173,-0.28372 0.569584,-0.87484 0.277871,-0.40834 0.556046,0.12832 0.598818,-0.42773 0.812681,-0.89823 0.73329,-1.07916 0.08475,-1.3376 0.128318,-1.32596 -0.04677,-1.40411 -0.252634,-0.76591 0.09293,-0.3148 0.477411,-0.46305 -0.605575,-2.39377 z"
       sodipodi:nodetypes="cccccccccccccccccccccccccccccccccccccccccccccccccccccccccccccccc" />
    <path
       inkscape:connector-curvature="0"
       style="fill:#ffffff;fill-opacity:1;stroke:#999999;stroke-width:0.1984375;stroke-miterlimit:4;stroke-dasharray:none;stroke-opacity:1"
       id="IN"
       d="m 38.214302,191.05056 0.01728,-0.75633 0.128321,-1.19764 0.598815,-0.76991 0.470503,-1.02655 0.684361,-1.11208 -0.128318,-1.53982 -0.470497,-0.72714 -0.08555,-0.85545 0.213863,-1.45428 -0.128317,-1.83922 -0.342186,-4.2345 -0.34218,-4.06341 -0.256771,-3.10092 0.812552,0.23535 0.384955,0.25663 0.299408,-0.0855 0.556046,-0.51327 0.748657,-0.42783 1.34747,-0.0429 5.817094,-0.59882 1.475246,-0.14106 0.397705,4.22174 1.124837,9.74766 0.158342,1.52707 -0.09829,0.59882 0.324903,0.47503 0.0255,0.36315 -0.667091,0.4232 -0.936474,0.41046 -0.84723,0.14559 -0.158343,1.28771 -1.210387,0.87642 -0.739886,1.0611 0.08555,0.62884 -0.153812,0.40593 h -0.880129 l -0.419505,-0.42773 -0.659688,0.33396 -0.709867,0.3977 0.04278,0.80816 -0.315857,0.0683 -0.123793,-0.26938 -0.573321,-0.39771 -0.85998,0.35493 -0.410451,0.79541 -0.380429,-0.21386 -0.384955,-0.42321 -1.18119,0.12832 -1.47977,0.25664 z" />
    <path
       inkscape:connector-curvature="0"
       style="fill:#ffffff;fill-opacity:1;stroke:#999999;stroke-width:0.1984375;stroke-miterlimit:4;stroke-dasharray:none;stroke-opacity:1"
       id="IL"
       d="m 38.20687,191.14875 0.0083,-0.85452 0.150122,-1.22925 0.617148,-0.77149 0.493885,-1.07837 0.59082,-1.0571 -0.09829,-1.3897 -0.530545,-0.9373 -0.02551,-0.88548 0.183841,-1.39422 -0.21839,-1.89928 -0.282136,-4.17445 -0.34218,-3.97334 -0.24402,-3.07954 -0.0721,-0.24378 -0.213863,-0.68437 -0.34218,-0.98377 -0.427728,-0.4705 -0.384953,-0.68436 -0.0618,-1.45229 -12.116972,0.68746 0.06049,0.62758 0.604898,0.18147 0.241956,0.30244 0.120981,0.48392 1.028324,0.90735 0.181472,0.6049 -0.181472,0.90734 -0.483918,0.96784 -0.181467,0.66538 -0.604898,0.48392 -0.483918,0.18147 -1.391263,0.36294 -0.18147,0.48392 -0.18147,0.54441 0.18147,0.36294 0.483917,0.42342 -0.06049,1.08882 -0.48392,0.42343 -0.181467,0.42343 v 0.72587 l -0.483918,0.12098 -0.423428,0.30245 -0.06049,0.36294 0.06049,0.54441 -0.453673,0.34781 -0.272204,0.741 0.120978,0.96783 0.604899,1.93568 1.935673,1.99616 1.45175,0.96784 -0.06049,1.1493 0.241962,0.36294 1.693711,0.12098 0.725877,0.36294 -0.181468,0.96783 -0.604898,1.57274 -0.18147,0.84685 0.604896,1.02833 1.693714,1.39126 1.209797,0.18147 0.544404,1.33078 0.544409,0.84685 -0.241958,0.78637 0.423428,1.08881 0.483918,0.54441 0.374129,-0.23301 0.240151,-0.54896 0.585544,-0.46228 0.563952,-0.16256 0.688586,0.31216 0.959641,0.36398 0.314576,-0.0789 0.05288,-0.59755 -0.340599,-0.63812 0.08049,-0.62884 0.48641,-0.35651 0.799714,-0.21439 0.333613,-0.12132 -0.162087,-0.36695 -0.209383,-0.62292 0.379042,-0.25955 z"
       sodipodi:nodetypes="ccccccccccccccccccccccccccccccccccccccccccccccccccccccccccccccccccccccccccccccccccc" />
    <path
       inkscape:connector-curvature="0"
       style="fill:#ffffff;fill-opacity:1;stroke:#999999;stroke-width:0.1984375;stroke-miterlimit:4;stroke-dasharray:none;stroke-opacity:1"
       id="CT"
       d="m 105.55043,159.00729 -0.97298,-3.93669 -1.24852,0.2435 -5.616785,1.25494 0.264634,0.85346 0.384955,1.92478 0.04677,2.37249 -0.322797,0.57544 0.508209,0.51126 1.130176,-1.03336 0.940998,-0.85546 0.51327,-0.55604 0.21387,0.17109 0.72713,-0.38496 1.36873,-0.2994 z"
       sodipodi:nodetypes="cccccccccccccccc" />
    <path
       inkscape:connector-curvature="0"
       style="fill:#ffffff;fill-opacity:1;stroke:#999999;stroke-width:0.1984375;stroke-miterlimit:4;stroke-dasharray:none;stroke-opacity:1"
       id="WI"
       d="m 37.022711,163.90361 -0.01765,-0.8354 -0.311973,-1.19764 -0.17109,-1.62536 -0.299408,-0.64159 0.256635,-0.81268 0.213863,-0.76991 0.384955,-0.68436 -0.171093,-0.89823 -0.17109,-0.94099 0.128318,-0.4705 0.513273,-0.6416 0.04277,-0.72713 -0.213863,-0.34218 0.17109,-0.68437 -0.119729,-1.1035 0.727136,-1.49704 0.769908,-1.79645 0.04277,-0.59882 -0.08555,-0.25663 -0.213866,0.12832 -1.112089,1.66813 -0.727135,1.06932 -0.513271,0.4705 -0.213863,0.59881 -0.517247,0.21386 -0.299408,0.51328 -0.384955,-0.0855 -0.04277,-0.4705 0.342183,-0.64159 0.556043,-1.24041 0.470501,-0.42772 0.262157,-0.62385 -0.677452,-0.50306 -0.522505,-2.74293 -0.938601,-0.35507 -0.514948,-0.61075 -3.209319,-0.7201 -0.760913,-0.26777 -2.173054,-0.57343 -2.09495,-0.30658 -0.996199,-1.35749 -0.198543,0.14658 -0.316947,-0.0428 -0.171093,-0.29941 -0.352957,0.0785 -0.29941,0.0428 -0.470498,0.25664 -0.256638,-0.17109 0.171093,-0.51327 0.51327,-0.81268 0.299408,-0.29941 -0.51327,-0.38496 -0.556046,0.21387 -0.769908,0.51327 -1.967542,0.85545 -0.769909,0.17109 -0.769906,-0.12832 -0.259749,-0.23237 -0.560044,0.75015 -0.06049,0.72587 v 2.23812 l -0.30245,0.42343 -1.391264,1.02832 -0.604896,1.57274 0.120978,0.0605 0.665388,0.5444 0.181467,0.84686 -0.483918,0.84686 v 1.02832 l 0.120981,1.7542 0.786366,0.78637 h 0.907348 l 0.483918,0.84686 0.907344,0.12098 1.028327,1.51224 1.875181,1.08882 0.544407,0.72587 0.241961,1.96592 0.181467,0.8771 0.604899,0.42343 0.06049,0.36294 -0.544407,0.90734 0.06049,0.84686 0.665387,1.02833 0.665388,0.30244 0.786365,0.12098 0.355161,0.36516 z"
       sodipodi:nodetypes="ccccccccccccccccccccccccccccccccccccccccccccccccccccccccccccccccccccccccccccccccccccccccc" />
    <path
       inkscape:connector-curvature="0"
       style="fill:#ffffff;fill-opacity:1;stroke:#999999;stroke-width:0.1984375;stroke-miterlimit:4;stroke-dasharray:none;stroke-opacity:1"
       id="NC"
       d="m 95.208724,189.55414 0.551656,1.30104 0.940998,1.71091 0.641589,0.64159 0.17109,0.59882 -0.641588,0.0428 0.213862,0.17109 -0.08554,1.11209 -0.684363,0.34218 -0.17109,0.55605 -0.342181,0.76991 -0.983773,0.42772 -0.641588,-0.0855 -0.384956,-0.0428 -0.427725,-0.34218 0.08554,0.34218 v 0.25664 h 0.513273 l 0.213863,0.34218 -0.513274,1.66814 h 1.112089 l 0.171093,0.42772 0.598816,-0.59881 0.342183,-0.12832 -0.513274,0.94099 -0.812681,1.28319 h -0.34218 l -0.29941,-0.12832 -0.727133,0.17109 -1.368727,0.64159 -1.710907,1.4115 -0.898226,1.2404 -0.513271,1.71091 -0.128317,0.64159 -1.240409,0.12832 -1.442807,0.35366 -2.631655,-2.17026 -3.336274,-2.01031 -0.769908,-0.21387 -3.336272,0.38496 -1.13148,0.19847 -0.427725,-0.85545 -0.785908,-0.56005 -4.362817,0.12832 -1.924775,0.21386 -2.395271,1.19764 -1.625364,0.68436 -5.603227,0.68437 0.132316,-1.07271 0.4705,-0.38495 0.727139,-0.17109 0.17109,-0.98378 1.112091,-0.72713 1.026544,-0.38496 1.112094,-0.941 1.154861,-0.55604 0.17109,-0.81269 1.026547,-1.02654 0.17109,-0.0428 c 0,0 0,0.29941 0.213865,0.29941 0.213863,0 0.513273,0.0855 0.513273,0.0855 l 0.598818,-0.941 0.556046,-0.17109 0.598816,0.0855 0.42773,-0.941 0.769909,-0.68437 0.128317,-0.55604 0.04961,-0.96525 1.13149,-0.006 1.904627,-0.22643 4.169101,-0.59595 4.004744,-0.55207 5.72571,-1.24866 5.287253,-1.12675 2.957232,-0.63654 z m 1.129892,8.7859 0.684366,-0.66298 0.834067,-0.68437 0.406342,-0.17109 0.04277,-0.53465 -0.17109,-1.62537 -0.384956,-0.62021 -0.171093,-0.49188 0.192479,-0.0642 0.727139,1.45427 0.106931,1.17625 -0.04277,0.89823 -0.898229,0.40634 -0.748525,0.6416 -0.299408,0.32079 z"
       sodipodi:nodetypes="cccccccccccccccccccccccccccccccccccccccccccccccccccccccccccscccccccccccccccccccccccccccccccc" />
    <path
       inkscape:connector-curvature="0"
       style="fill:#ffffff;fill-opacity:1;stroke:#999999;stroke-width:0.1984375;stroke-miterlimit:4;stroke-dasharray:none;stroke-opacity:1"
       id="DC"
       d="m 87.492923,178.05225 -0.491669,-0.48265 -0.326134,-0.18158 0.381797,-0.53511 0.764405,0.51554 z"
       sodipodi:nodetypes="cccccc" />
    <path
       inkscape:connector-curvature="0"
       style="fill:#ffffff;fill-opacity:1;stroke:#999999;stroke-width:0.1984375;stroke-miterlimit:4;stroke-dasharray:none;stroke-opacity:1"
       id="MA"
       d="m 112.31191,157.52325 0.57465,-0.18147 0.12099,-0.45367 0.2722,0.0302 0.2722,0.6049 -0.33269,0.12098 -1.02833,0.0302 z m -2.48008,0.21172 0.60489,-0.69564 h 0.42343 l 0.48392,0.39319 -0.63514,0.2722 -0.57465,0.2722 z m -9.20727,-5.81771 4.66906,-1.22785 0.59883,-0.17109 0.50643,-0.73969 0.98869,-0.44009 0.76444,1.16756 -0.64159,1.36873 -0.0855,0.38495 0.51328,0.68437 0.29941,-0.21386 h 0.4705 l 0.59881,0.68436 1.02655,1.58258 0.941,0.12832 0.59881,-0.25663 0.4705,-0.4705 -0.21386,-0.72714 -0.55605,-0.42772 -0.38495,0.21386 -0.25664,-0.34218 0.12832,-0.12832 0.55605,-0.0428 0.47049,0.21386 0.51328,0.64159 0.25663,0.76991 0.0855,0.64159 -1.11209,0.38495 -1.02654,0.51327 -1.02655,1.19764 -0.51327,0.38495 v -0.25663 l 0.64159,-0.38496 0.12832,-0.4705 -0.21387,-0.81268 -0.7699,0.38496 -0.21387,0.38495 0.12832,0.59882 -0.54671,0.26469 -0.72687,-1.1978 -0.89823,-1.15486 -0.54782,-0.47955 -1.72859,0.49641 -1.34735,0.27802 -5.470299,1.21502 -0.176679,-1.26149 0.171091,-2.80161 1.134869,-0.23525 z"
       sodipodi:nodetypes="ccccccccccccccccccccccccccccccccccccccccccccccccccccccccccccccc" />
    <path
       inkscape:connector-curvature="0"
       style="fill:#ffffff;fill-opacity:1;stroke:#999999;stroke-width:0.1984375;stroke-miterlimit:4;stroke-dasharray:none;stroke-opacity:1"
       id="TN"
       d="m 58.615883,195.88788 -13.730046,1.32596 -4.169717,0.4705 -1.222692,0.13565 -1.023501,-0.007 -0.05846,1.08501 -2.165715,0.0699 -1.839228,0.17109 -2.140698,-0.0328 -0.374063,1.87136 -0.448794,1.44993 -0.871318,0.72782 -0.356854,1.15916 -0.08554,0.68436 -1.069319,0.59882 0.384953,0.941 -0.256636,1.15486 -0.256217,0.20893 28.61695,-2.75366 0.106698,-1.04642 0.479089,-0.39433 0.749869,-0.19829 0.177781,-0.98345 1.084422,-0.71569 1.07075,-0.39529 1.080447,-0.94465 1.173716,-0.53591 0.137916,-0.81157 1.075426,-1.05436 0.145732,-0.0302 c 0,0 0.0083,0.29941 0.222131,0.29941 0.213863,0 0.513273,0.0938 0.513273,0.0938 l 0.598818,-0.94927 0.547778,-0.17109 0.601956,0.0781 0.422886,-0.93473 0.78191,-0.69954 0.11157,-0.51305 0.08174,-0.98191 -0.567941,-0.0529 -0.688361,0.53667 -1.850313,0.008 -4.857563,0.63152 z"
       sodipodi:nodetypes="ccccccccccccccccccccccccccccccsccccccccccccc" />
    <path
       inkscape:connector-curvature="0"
       style="fill:#ffffff;fill-opacity:1;stroke:#999999;stroke-width:0.1984375;stroke-miterlimit:4;stroke-dasharray:none;stroke-opacity:1"
       id="AR"
       d="m 31.402665,202.44924 -1.05301,0.18963 -1.352589,-0.16775 0.11131,-0.42388 0.788392,-0.67911 0.249603,-0.96738 -0.483918,-0.78637 -20.7479819,0.66539 0.4234286,1.81469 -2.7e-6,2.17764 0.3629422,2.90353 0.060489,10.01102 0.6048988,0.51416 0.786365,-0.36293 0.725879,0.30245 0.180007,1.73918 14.716458,-0.30178 0.303115,-0.55308 -0.07583,-0.93914 -0.483032,-0.78637 0.422987,-0.39296 -0.422987,-0.6645 0.181028,-0.66406 0.362054,-1.4831 0.666271,-0.54574 -0.18147,-0.60446 0.967838,-1.42128 0.725876,-0.36206 -0.03002,-0.39517 -0.0914,-0.48304 0.755901,-1.48133 0.635804,-0.33247 0.101635,-0.9069 0.468489,-0.32853 -0.831723,-0.12813 -0.354928,-1.06109 0.741913,-0.62884 0.14559,-0.53425 0.338529,-1.07066 z"
       sodipodi:nodetypes="cccccccccccccccccccccccccccccccccccccccc" />
    <path
       inkscape:connector-curvature="0"
       style="fill:#ffffff;fill-opacity:1;stroke:#999999;stroke-width:0.1984375;stroke-miterlimit:4;stroke-dasharray:none;stroke-opacity:1"
       id="MO"
       d="m 22.040503,177.32976 -0.666716,-0.81684 -0.30245,-0.6049 -17.0278503,0.63515 -0.6049063,0.0302 0.332695,0.66539 -0.060489,0.60489 0.6653847,1.02833 0.81661,1.08882 0.8166127,0.72587 0.5718254,0.0605 0.3960098,0.24196 v 0.78637 l -0.483915,0.42343 -0.1209834,0.60489 0.5444094,0.90735 0.66539,0.78637 0.6653847,0.48391 0.3629369,3.08498 0.083116,9.54411 0.060489,1.24003 0.1209781,1.42439 5.9353953,-0.22935 6.139929,-0.18147 5.504566,-0.21193 3.08365,-0.0609 0.573987,0.90646 -0.181025,0.87511 -0.816835,0.6358 -0.151445,0.48613 1.423059,0.12098 1.030541,-0.18147 0.454338,-1.45352 0.172354,-1.54961 0.555104,-0.67605 0.686866,-0.39341 0.0136,-0.80704 0.268822,-0.51236 -0.448265,-0.67304 -0.352142,0.26042 -0.527214,-0.58929 -0.339997,-1.25915 0.211933,-0.66628 -0.514384,-0.9069 -0.484357,-1.21068 -1.269844,-0.21149 -1.843828,-1.48134 -0.454782,-1.08837 0.211495,-0.84686 0.544848,-1.60276 0.121423,-0.75766 -0.51571,-0.27287 -1.813809,-0.21105 -0.271983,-0.45301 -0.02958,-1.11928 -1.451753,-0.90779 -1.845603,-2.05621 -0.604896,-1.93567 -0.06093,-1.11795 z"
       sodipodi:nodetypes="cccccccccccccccccccccccccccccccccccccccccccccccccccccccccccc" />
    <path
       inkscape:connector-curvature="0"
       style="fill:#ffffff;fill-opacity:1;stroke:#999999;stroke-width:0.1984375;stroke-miterlimit:4;stroke-dasharray:none;stroke-opacity:1"
       id="GA"
       d="m 52.163863,205.75623 v 0.57743 l 0.04277,0.55605 0.171091,0.89823 0.898228,2.09586 0.641591,2.60914 0.384953,1.62536 0.427728,1.28318 0.384955,1.83923 0.556046,1.66813 0.684363,0.89823 0.128318,0.89823 0.513273,0.21386 0.04277,0.55605 -0.470501,1.28318 -0.128318,0.85545 -0.04277,0.51328 0.427728,1.15486 0.08555,1.4115 -0.213865,0.64159 0.171093,0.21387 0.384955,0.21386 0.05416,0.85145 0.590817,0.88623 0.595429,0.57204 2.095865,0.0428 2.862726,-0.17109 5.69182,-0.34218 1.440846,-0.17843 1.211065,0.007 0.04277,0.76991 0.684363,0.21386 0.08555,-1.15486 -0.427728,-1.19764 0.299411,-0.42773 1.539817,0.21387 1.316939,0.0841 -0.205163,-1.66656 0.598816,-2.6519 0.384955,-1.1121 -0.12832,-0.68436 0.882229,-1.65213 -0.135017,-0.35764 -0.506256,0.18642 -0.684361,-0.34218 -0.171093,-0.55605 -0.34218,-0.941 -0.598821,-0.55604 -0.68436,-0.17109 -0.427728,-1.28318 -0.773909,-1.67614 -1.112089,-0.51327 -0.556048,-0.51327 -0.342183,-0.68437 -0.556043,-0.51327 -0.598819,-0.34218 -0.598818,-0.76991 -0.812681,-0.59882 -1.197639,-0.4705 -0.128317,-0.38495 -0.641591,-0.76991 -0.128318,-0.38496 -0.898228,-1.3151 -0.931299,0.0262 -0.993487,-0.62339 -0.375253,-0.34218 -0.08555,-0.4705 0.230399,-0.51327 0.589132,-0.29373 -0.16773,-0.55489 z"
       sodipodi:nodetypes="ccccccccccccccccccccccccccccccccccccccccccccccccccccccccccccccccccccccc" />
    <path
       inkscape:connector-curvature="0"
       style="fill:#ffffff;fill-opacity:1;stroke:#999999;stroke-width:0.1984375;stroke-miterlimit:4;stroke-dasharray:none;stroke-opacity:1"
       id="SC"
       d="m 76.67777,219.67677 -0.47018,0.25652 -0.684363,-0.34219 -0.171091,-0.55604 -0.34218,-0.941 -0.598821,-0.55605 -0.684363,-0.17109 -0.427726,-1.28318 -0.727138,-1.58259 -1.112089,-0.51328 -0.556048,-0.51327 -0.34218,-0.68436 -0.556046,-0.51328 -0.598818,-0.34218 -0.598819,-0.7699 -0.81268,-0.59882 -1.19764,-0.4705 -0.128317,-0.38496 -0.641588,-0.7699 -0.128321,-0.38496 -0.898228,-1.36873 -0.898226,0.0428 -1.069319,-0.6416 -0.34218,-0.34218 -0.08555,-0.4705 0.213862,-0.51327 0.598818,-0.25664 -0.135154,-0.60565 1.526143,-0.61822 2.411809,-1.21417 2.057064,-0.21387 4.263602,-0.11178 0.698037,0.49674 0.444262,0.88853 1.13833,-0.16139 3.336271,-0.38496 0.769909,0.21386 3.336274,2.01032 2.674429,2.14887 -1.434351,1.44418 -0.684363,1.62536 -0.128318,1.66814 -0.427725,0.21386 -0.299411,0.72714 -0.641588,0.17109 -0.556045,0.94099 -0.727136,0.72714 -0.598816,0.89823 -0.427728,0.21386 -0.940998,0.89823 -0.769909,0.0428 0.256638,0.85545 -1.325954,1.45427 z"
       sodipodi:nodetypes="cccccccccccccccccccccccccccccccccccccccccccccccccccccc" />
    <path
       inkscape:connector-curvature="0"
       style="fill:#ffffff;fill-opacity:1;stroke:#999999;stroke-width:0.1984375;stroke-miterlimit:4;stroke-dasharray:none;stroke-opacity:1"
       id="KY"
       d="m 66.372546,189.80686 -0.606774,0.63544 -0.94673,1.05676 -1.302954,1.44586 -0.321672,0.45396 -0.01654,0.55604 -1.158837,0.57259 -1.497045,0.89822 -1.913432,0.47595 -13.723379,1.29616 -4.169717,0.47049 -1.222692,0.13566 -1.023501,-0.007 -0.06005,1.11662 -2.164136,0.0382 -1.839227,0.17109 -2.113354,-0.0159 0.319558,-0.34927 0.661337,-0.40769 0.06049,-0.84686 0.241959,-0.48392 -0.425137,-0.67175 0.21215,-0.50451 0.598821,-0.47049 0.556043,-0.1711 0.727136,0.34219 0.941001,0.34218 0.299411,-0.0856 0.04277,-0.59882 -0.342183,-0.64159 0.08555,-0.59882 0.513274,-0.38495 0.684365,-0.17109 0.427726,-0.17109 -0.213863,-0.4705 -0.17109,-0.51328 0.398627,-0.26347 c 7.93e-4,-0.01 0.331776,-0.93194 0.32763,-0.96779 l 0.807832,-0.39124 1.407527,-0.25663 1.189048,-0.12832 0.368417,0.43059 0.404355,0.2304 0.420891,-0.82238 0.843248,-0.33936 0.58343,0.39265 0.108627,0.26433 0.310494,-0.0699 -0.04277,-0.7813 0.828376,-0.46281 0.568349,-0.28402 0.404643,0.43942 0.877927,-0.0117 0.155398,-0.41573 -0.09724,-0.59882 0.688057,-1.05793 1.263795,-0.90961 0.186783,-1.27949 0.773911,-0.12063 1.003158,-0.43542 0.646461,-0.45197 -0.05248,-0.41405 -0.302273,-0.38496 0.149707,-0.7924 1.107241,-0.0311 0.608518,-0.19732 0.885664,0.37811 0.543483,1.15487 1.357918,0.003 0.542663,0.58425 0.427422,-0.0391 0.688363,-0.33818 1.385639,0.15171 0.681281,0.0575 0.446506,-0.54405 0.692666,-0.37726 0.497887,-0.18709 0.17109,0.75052 0.540658,0.28002 0.69923,0.55099 0.03108,1.50105 0.213862,0.41603 0.685197,0.41177 0.204163,0.60709 1.100638,0.90935 0.477655,0.95865 z"
       sodipodi:nodetypes="ccccccccccccccccccccccccccccccccccccccccccccccccccccccccccccccccccccccccccccccccccccccc" />
    <path
       inkscape:connector-curvature="0"
       style="fill:#ffffff;fill-opacity:1;stroke:#999999;stroke-width:0.1984375;stroke-miterlimit:4;stroke-dasharray:none;stroke-opacity:1"
       id="AL"
       d="m 41.319698,233.50147 -0.394388,-3.78923 -0.727138,-4.96163 0.04277,-3.72123 0.213863,-8.21236 -0.04277,-4.4056 0.04368,-1.69837 11.769852,-0.95765 -0.0391,0.57743 0.04277,0.55605 0.171093,0.89823 0.898229,2.09586 0.641588,2.60914 0.384956,1.62536 0.427725,1.28318 0.384958,1.83923 0.556043,1.66814 0.684363,0.89823 0.128318,0.89822 0.513276,0.21387 0.04277,0.55604 -0.470503,1.28318 -0.128317,0.85546 -0.04277,0.51327 0.427731,1.15487 0.08555,1.41149 -0.213868,0.6416 0.171095,0.21386 0.384953,0.21386 0.08682,0.76434 -1.481047,-0.0935 -1.796455,0.17109 -6.758093,0.76991 -2.754725,0.37221 -0.05857,0.76131 0.470501,0.4705 0.684363,0.51327 0.153686,2.09959 -1.466337,0.68074 -0.727133,-0.0855 0.727133,-0.51328 v -0.25663 l -0.812678,-1.58259 -0.598818,-0.17109 -0.384956,1.15486 -0.34218,0.72714 -0.17109,-0.0428 z"
       sodipodi:nodetypes="cccccccccccccccccccccccccccccccccccccccccccccccc" />
    <path
       inkscape:connector-curvature="0"
       style="fill:#ffffff;fill-opacity:1;stroke:#999999;stroke-width:0.1984375;stroke-miterlimit:4;stroke-dasharray:none;stroke-opacity:1"
       id="LA"
       d="m 35.144479,233.16956 -0.869053,-0.83771 0.267206,-1.45526 -0.174983,-0.2363 -2.450483,0.26632 -6.622076,0.12142 -0.181026,-0.63359 0.241515,-2.23724 0.877326,-1.57317 1.331214,-2.2995 -0.151889,-0.63447 0.332473,-0.18015 0.121425,-0.51659 -0.604901,-0.54397 -0.02958,-0.51394 -0.484362,-1.14975 -0.03891,-1.67708 -14.67744,0.24446 0.0076,2.53301 0.18147,2.48008 0.18147,1.02832 0.665387,1.08882 0.241959,1.33078 1.149305,1.45175 0.06049,0.84685 0.18147,0.18147 -0.18147,2.23813 -0.786366,1.33077 0.423429,0.54441 -0.181473,0.66538 -0.181467,1.93567 -0.362939,0.84686 0.0324,0.95685 1.239964,-0.40221 3.204991,0.0548 2.73745,0.94099 1.710907,0.29942 0.983771,-0.38496 0.855454,0.29941 0.855453,0.25664 0.213863,-0.55605 -0.855454,-0.29941 -0.684363,0.12832 -0.727136,-0.42773 c 0,0 0.04278,-0.34218 0.213866,-0.38495 0.17109,-0.0428 0.812681,-0.25664 0.812681,-0.25664 l 0.470498,0.38496 0.4705,-0.25664 0.855454,0.17109 0.384952,0.64159 0.08555,0.59882 1.197633,0.0855 0.470501,0.47049 -0.213863,0.42773 -0.342183,0.21386 0.427728,0.42773 2.224178,0.941 0.940998,-0.34218 0.256638,-0.64159 0.684361,-0.17109 0.4705,-0.38496 0.342181,0.25664 0.213862,0.76991 -0.598815,0.21386 0.17109,0.17109 0.898226,-0.34218 0.598818,-0.89823 0.213863,-0.12831 -0.556046,-0.0856 0.213863,-0.42773 -0.04277,-0.38495 0.556046,-0.12832 0.299408,-0.34218 0.17109,0.21386 c 0,0 -0.04277,0.81268 0.171093,0.81268 0.213863,0 1.112089,0.1711 1.112089,0.1711 l 1.069316,0.51327 0.256635,0.38495 h 0.769908 l 0.299411,0.25664 0.598815,-0.81268 v -0.38496 h -0.34218 l -0.898226,-0.72713 -1.539817,-0.21387 -0.855453,-0.59881 0.29941,-0.72714 0.598816,0.0856 0.04277,-0.17109 -0.470498,-0.25664 v -0.12832 h 0.855454 l 0.470498,-0.81268 -0.34218,-0.51327 -0.08555,-0.72714 -0.384955,0.0428 -0.513271,0.55604 -0.17109,0.68436 -0.812681,-0.17109 -0.256638,-0.4705 0.470501,-0.51327 0.503589,-0.91165 -0.280749,-0.63824 z"
       sodipodi:nodetypes="ccccccccccccccccccccccccccccccccccccccccccccscccccccccccccccccccccccccccccsccccccccccccccccccccccccccccc" />
    <path
       inkscape:connector-curvature="0"
       style="fill:#ffffff;fill-opacity:1;stroke:#999999;stroke-width:0.1984375;stroke-miterlimit:4;stroke-dasharray:none;stroke-opacity:1"
       id="MS"
       d="m 41.386466,233.21807 -0.06727,0.33235 h -1.368727 l -0.384953,-0.21386 -0.556045,-0.0855 -1.796452,0.51327 -0.470498,-0.21387 -0.684364,1.11209 -0.291713,0.20585 -0.297347,-0.65827 -0.302451,-1.02833 -0.907343,-0.84685 0.302445,-1.467 -0.181467,-0.24196 -0.483918,0.0605 -2.094949,0.23108 -6.494595,0.0988 -0.20366,-0.5888 0.231079,-2.21636 0.824664,-1.50093 1.382995,-2.41959 -0.117935,-0.64362 0.327252,-0.17364 0.115324,-0.50786 -0.613166,-0.55006 -0.03046,-0.5666 -0.485701,-1.09037 -0.02884,-1.57765 0.351243,-0.65642 -0.05908,-0.90375 -0.468177,-0.81561 0.403865,-0.39216 -0.415557,-0.66134 0.120981,-0.43715 0.417353,-1.72677 0.657741,-0.53878 -0.169775,-0.62626 0.967838,-1.40296 0.749263,-0.35889 -0.05846,-0.44322 -0.07624,-0.44479 0.760958,-1.47311 0.620638,-0.32584 0.04012,-0.23627 9.880462,-1.0269 0.04891,1.66247 0.04277,4.40559 -0.213863,8.21236 -0.04277,3.72123 0.727138,4.96164 z"
       sodipodi:nodetypes="ccccccccccccccccccccccccccccccccccccccccccccccccccc" />
    <path
       inkscape:connector-curvature="0"
       style="fill:#ffffff;fill-opacity:1;stroke:#999999;stroke-width:0.1984375;stroke-miterlimit:4;stroke-dasharray:none;stroke-opacity:1"
       id="IA"
       d="m 24.885123,164.48983 0.06995,0.73718 0.588359,0.15273 0.252396,0.32421 0.132295,0.49089 1.003522,0.88865 0.18147,0.63275 -0.178419,0.90605 -0.418653,0.85513 -0.211492,0.72543 -0.574874,0.42388 -0.453895,0.15145 -1.476116,0.49217 -0.368157,1.0183 0.192786,0.36294 0.486968,0.44519 -0.07486,1.06793 -0.4665,0.40689 -0.204102,0.43475 0.03366,0.73457 -0.499086,0.12098 -0.430067,0.29234 -0.07376,0.35788 0.07376,0.55957 -0.410374,0.2953 -0.653661,-0.82902 -0.334055,-0.64819 -17.3926025,0.66539 -0.2428955,0.0438 -0.5430308,-1.19485 -0.060489,-1.7542 L 2.4097716,172.5611 2.2283045,171.16984 1.6234061,170.202 1.38145,168.93172 l -0.72587911,-1.99616 -0.30244785,-1.42152 -0.36293954,-0.57465 -0.42342858,-0.72587 0.51699054,-1.2816 0.36293953,-1.51224 -0.72587642,-0.54441 -0.12098073,-0.72588 0.24196145,-0.66538 h 0.4536731 l 21.86887061,-0.33589 0.220731,1.10679 0.59589,0.413 0.06792,0.37653 -0.536983,0.89675 0.05038,0.84813 0.66539,1.00494 0.668546,0.34227 0.814726,0.1331 z"
       sodipodi:nodetypes="ccccccccccccccccccccccccccccccccccccccccccccccccccccccc" />
    <path
       inkscape:connector-curvature="0"
       style="fill:#ffffff;fill-opacity:1;stroke:#999999;stroke-width:0.1984375;stroke-miterlimit:4;stroke-dasharray:none;stroke-opacity:1"
       id="MN"
       d="m 0.02653231,145.76794 -0.12098073,-2.23812 -0.48391761,-1.93568 -0.48391767,-3.56889 -0.1209807,-2.60106 -0.4839176,-0.90734 -0.4234286,-1.33078 v -2.72204 l 0.1814671,-1.02832 -0.4817877,-1.44242 7.972536,0.009 0.085545,-2.18141 0.1710902,-0.0428 0.5988182,0.12832 0.5132705,0.21386 0.2138627,1.45427 0.3849555,1.62536 0.4277254,0.42773 H 9.260054 l 0.085545,0.38495 1.668134,0.0855 v 0.55604 h 1.283179 l 0.08554,-0.34218 0.299408,-0.29941 0.598818,-0.17109 0.342181,0.25664 h 0.769908 l 1.026544,0.68436 1.411499,0.64159 0.641591,0.12832 0.128317,-0.25664 0.384953,-0.12831 0.128318,0.7699 0.684363,0.34219 0.128318,-0.12832 0.342183,0.0428 v 0.55605 l 0.68436,0.25663 h 0.812681 l 0.427728,-0.21386 0.855454,-0.85546 0.68436,-0.12831 0.213866,0.4705 0.128317,0.34218 h 0.256636 l 0.256635,-0.21387 2.352498,-0.0855 0.470498,0.81268 h 0.171092 l 0.18881,-0.28688 1.174726,-0.0981 -0.161952,0.6031 -1.042119,0.48607 -2.446279,1.07451 -1.263317,0.53099 -0.812681,0.68437 -0.641591,0.94099 -0.598815,1.02655 -0.470501,0.21386 -1.197634,1.32595 -0.342183,0.0428 -1.145058,0.72948 -0.651637,0.84802 -0.06049,0.84439 0.02498,2.12814 -0.364077,0.44681 -1.344491,0.99483 -0.590042,1.58284 0.759818,0.59101 0.179887,0.8538 -0.490865,0.85697 0.04519,0.99166 0.09759,1.78075 0.801224,0.79428 h 0.880798 l 0.500357,0.82883 0.894072,0.13316 1.021069,1.50058 1.875179,1.08922 0.567042,0.76071 0.177575,1.70379 -21.48720945,0.30289 -0.089408,-9.4395 -0.12097808,-0.78637 -1.08881596,-0.90734 -0.3024505,-0.48392 v -0.42343 l 0.54440666,-0.42343 0.36293954,-0.36294 z"
       sodipodi:nodetypes="ccccccccccccccccccccccccccccccccccccccccccccccccccccccccccccccccccccccccccccccccccccccccccc" />
    <path
       inkscape:connector-curvature="0"
       style="fill:#ffffff;fill-opacity:1;stroke:#999999;stroke-width:0.1984375;stroke-miterlimit:4;stroke-dasharray:none;stroke-opacity:1"
       id="OK"
       d="m -25.081018,196.56716 -4.414356,-0.3369 -0.232892,2.89783 5.414799,0.3061 8.481364,0.34491 -0.617696,6.46076 -0.120981,4.7182 0.06049,0.42343 1.149305,0.96784 0.544406,0.30245 0.18147,-0.0605 0.18147,-0.54441 0.362939,0.48392 h 0.544407 v -0.36294 l 0.725877,0.36294 -0.120979,1.02832 1.088816,0.0605 0.665385,0.30245 1.088816,0.18147 0.6653875,0.48392 0.6048984,-0.54441 0.9073462,0.18147 0.6653873,0.90735 h 0.2419562 v 0.60489 l 0.6048984,0.18147 0.6048957,-0.60489 0.4839202,0.18146 h 0.6653848 l 0.2419614,0.66539 1.6671581,0.55006 0.3629395,-0.18146 0.4839177,-1.08882 h 0.3024478 l 0.3024505,0.54441 1.08881597,0.18147 0.96783259,0.36294 0.78636814,0.24196 0.4839202,-0.24196 0.1814672,-0.66539 h 1.149305 l 0.5444066,0.24196 0.7258765,-0.54441 h 0.3024505 l 0.1814697,0.42343 h 1.0888133 l 0.4234286,-0.54441 0.4839203,0.12098 0.5444066,0.66539 0.8468546,0.48391 0.8468598,0.24197 0.5135774,0.29605 -0.1029494,-9.84701 -0.3629422,-2.90353 -0.042455,-2.34747 -0.3809709,-1.72977 -0.2058988,-1.89962 -0.018018,-1.00971 -3.2112055,0.0843 -12.279323,-0.12098 -11.9165449,-0.54441 z"
       sodipodi:nodetypes="ccccccccccccccccccccccccccccccccccccccccccccccccccccccccccccccc" />
    <path
       inkscape:connector-curvature="0"
       style="fill:#ffffff;fill-opacity:1;stroke:#999999;stroke-width:0.1984375;stroke-miterlimit:4;stroke-dasharray:none;stroke-opacity:1"
       id="TX"
       d="m -30.07606,199.14741 6.003604,0.28732 8.226608,0.30245 -0.617699,6.20601 -0.07852,4.80312 0.01802,0.55081 1.149305,1.01029 0.525635,0.3829 0.313322,-0.14809 0.09879,-0.48094 0.301709,0.47721 0.558705,0.0116 -7.94e-4,-0.38288 0.441838,0.25593 0.301282,0.10818 -0.09506,1.04977 1.081667,0.0247 0.773991,0.31675 1.046358,0.13901 0.6300732,0.55006 0.5620015,-0.54932 0.985557,0.16269 0.5876158,0.85327 0.2844165,0.0849 -0.042458,0.51998 0.5856843,0.20962 0.6165188,-0.54366 0.5643616,0.1627 0.5898568,0.009 0.2468747,0.64438 1.6743072,0.55944 0.4214944,-0.20291 0.394089,-1.10536 h 0.090149 l 0.2398421,0.0216 0.3251862,0.54733 1.03978072,0.17602 0.88291457,0.2971 0.90636461,0.31643 0.4869868,-0.25797 0.188849,-0.66538 1.1782477,0.0117 0.4785625,0.24627 0.7406349,-0.55735 0.2920047,0.0117 0.225171,0.42467 H 6.2206 l 0.4018677,-0.53674 0.494075,0.10775 0.5148871,0.63587 0.9314841,0.54085 0.7563803,0.21426 0.4004786,0.21163 0.6473562,0.52845 0.805137,-0.35131 0.712018,0.30133 0.149175,1.61553 -0.01053,2.56703 0.181467,2.52254 0.185786,0.95385 0.707847,1.16943 0.237644,1.30988 1.11547,1.46526 0.05186,0.8321 0.197478,0.20792 -0.193165,2.21723 -0.75991,1.32464 0.405599,0.56961 -0.166709,0.61862 -0.177157,1.95906 -0.398018,0.88318 0.07802,0.92666 -1.498832,0.41941 -2.6091334,1.19764 -0.2566353,0.51327 -0.6843633,0.51327 -0.556043,0.38495 -0.342183,0.21387 -1.4970416,1.4115 -0.7271358,0.55604 -1.4114992,0.85545 -1.4970416,0.64159 -1.66813435,0.89823 -0.47049795,0.38496 -1.5398168,0.94099 -0.898226,0.17109 -1.0265436,1.45427 -1.0693162,0.0856 -0.2566379,0.51327 0.5988182,0.51327 -0.3849555,1.45427 -0.3421803,1.19764 -0.2994078,1.02654 -0.2138627,1.19764 0.2138627,0.64159 0.470498,1.83922 0.2566378,1.62536 0.470498,0.72714 -0.2566352,0.38495 -0.812681,0.51327 -1.4970442,-1.02654 -1.454269,-0.29941 -0.342183,0.12832 -0.8554535,-0.17109 -1.1120885,-0.81268 -1.368724,-0.29941 -2.010318,-0.89823 -0.556043,-1.02654 -0.342183,-1.71091 -0.85545,-0.51327 -0.171093,-0.59882 0.171093,-0.17109 0.08554,-0.89822 -0.342183,-0.17109 -0.17109,-0.25664 0.34218,-1.15486 -0.427726,-0.59882 -0.855453,-0.34218 -0.898226,-1.15486 -0.940999,-1.75368 -1.112088,-0.68437 0.04277,-0.51327 -1.411499,-3.25072 -0.213863,-1.11209 -0.470498,-0.51327 -0.04277,-0.38495 -1.582589,-1.4115 -0.684364,-0.81268 v -0.29941 l -0.684363,-0.55605 -1.796452,-0.29941 -1.967542,-0.17109 -0.812681,-0.59881 -1.197634,0.4705 -0.940998,0.38495 -0.598819,0.85545 -0.256635,0.98378 -1.154861,1.62536 -0.641591,0.64159 -0.684363,-0.25664 -0.470498,-0.29941 -0.513273,-0.17109 -1.026544,-0.59881 v -0.1711 l -0.470498,-0.51327 -1.368727,-0.55604 -1.967542,-2.05309 -0.598818,-1.24041 v -2.13863 l -0.855453,-1.71091 -0.128318,-0.72713 -0.427725,-0.25664 -0.299411,-0.55604 -1.325951,-0.55605 -0.342181,-0.42772 -1.881999,-2.09587 -0.342181,-0.85545 -1.240409,-0.59882 -0.384955,-1.15487 -0.684369,-0.7699 -0.513268,-0.12832 -0.171775,-1.23762 2.117161,0.18147 7.682175,0.72587 7.682198,0.42343 0.590955,-5.14927 1.028316,-14.69893 0.423436,-4.96023 0.36294,0.008 m 26.2015152,60.76493 -0.1497039,-1.882 -0.7271385,-1.90339 -0.1497065,-1.86062 0.4063418,-2.18141 0.876845,-1.81785 0.9196123,-1.43289 0.8340725,-0.941 0.1710901,0.0642 -1.2617979,1.75368 -1.1548639,1.73231 -0.534662,1.75368 -0.085545,1.36873 0.235249,1.62537 0.6843659,1.90339 0.1283176,1.36873 0.042773,0.38495 z"
       sodipodi:nodetypes="ccccccccccccccccccccccccccccccccccccccccccccccccccccccccccccccccccccccccccccccccccccccccccccccccccccccccccccccccccccccccccccccccccccccccccccccccccccccccccccccccccccccccccccccccccccccccccc" />
    <path
       inkscape:connector-curvature="0"
       style="fill:#ffffff;fill-opacity:1;stroke:#999999;stroke-width:0.1984375;stroke-miterlimit:4;stroke-dasharray:none;stroke-opacity:1"
       id="NM"
       d="m -49.473109,223.86996 -0.20516,-1.25627 2.287,0.13902 7.982944,0.77943 7.214701,0.44712 0.586124,-4.94969 1.020593,-14.78385 0.459761,-5.13006 0.415846,0.034 0.218387,-2.95365 -27.517844,-2.81409 -4.629507,31.86504 4.090635,0.5263 0.342181,-2.65191 z"
       sodipodi:nodetypes="ccccccccccccccc" />
    <path
       inkscape:connector-curvature="0"
       style="fill:#ffffff;fill-opacity:1;stroke:#999999;stroke-width:0.1984375;stroke-miterlimit:4;stroke-dasharray:none;stroke-opacity:1"
       id="KS"
       d="m 8.6632677,197.50876 -3.3385812,0.0541 -12.1944049,-0.12097 -11.7891666,-0.54442 -6.516618,-0.33269 1.030231,-17.09075 5.842916,0.17864 10.659832,0.22262 11.7213696,0.2613 h 1.3482188 l 0.5779558,0.57213 0.5338392,-0.006 0.433996,0.26788 -0.016536,0.7962 -0.4839176,0.4565 -0.087908,0.59059 0.4876483,0.9002 0.7811452,0.84536 0.615778,0.42716 0.3441621,2.97414 z"
       sodipodi:nodetypes="ccccccccccccccccccccc" />
    <path
       inkscape:connector-curvature="0"
       style="fill:#ffffff;fill-opacity:1;stroke:#999999;stroke-width:0.1984375;stroke-miterlimit:4;stroke-dasharray:none;stroke-opacity:1"
       id="NE"
       d="m 2.8999232,175.36851 0.8547655,1.85735 -0.034033,0.60921 0.915252,1.45359 0.7194788,0.83406 H 4.0193779 l -11.5047606,-0.24836 -10.7915233,-0.23556 -5.887566,-0.2074 0.283837,-5.64299 -8.550868,-0.77265 1.149305,-11.64428 4.1133,0.27221 5.323096,0.30244 4.718201,0.30245 6.290934,0.30245 2.8430171,-0.12098 0.5444067,0.6049 1.2702857,0.78637 0.3024479,0.24196 1.149305,-0.36294 1.0283269,-0.12098 0.7258764,-0.0605 0.4839176,0.36294 1.0735284,0.42342 0.78636545,0.42343 0.12098073,0.42343 0.24195881,0.54441 h 0.48391762 l 0.2111322,0.0122 0.23659836,1.23873 0.77265213,2.24047 0.1514819,0.99397 0.6676734,0.9986 0.150704,1.35312 0.4252489,1.12193 z"
       sodipodi:nodetypes="ccccccccccccccccccccccccccccccccccccc" />
    <path
       inkscape:connector-curvature="0"
       style="fill:#ffffff;fill-opacity:1;stroke:#999999;stroke-width:0.1984375;stroke-miterlimit:4;stroke-dasharray:none;stroke-opacity:1"
       id="SD"
       d="m 0.34642943,165.66467 -0.0125413,-0.15369 -0.76615659,-1.28202 0.49218585,-1.24675 0.39495147,-1.55748 -0.73603643,-0.55025 -0.10190691,-0.72588 0.20965583,-0.67583 0.84362659,0.004 -0.0325649,-1.32454 -0.0881856,-7.98361 -0.16344106,-0.99684 -1.07746799,-0.88131 -0.25998751,-0.44369 -0.0165365,-0.42567 0.53501924,-0.40465 0.40539987,-0.44071 0.06481233,-0.70294 -15.41385482,-0.42343 -14.498957,-0.91257 -1.408978,16.85163 3.860342,0.23913 5.278398,0.31898 4.694515,0.24569 6.290934,0.34491 3.170423,-0.11236 0.5202502,0.59404 1.3744152,0.86078 0.2021125,0.19123 1.2015893,-0.38439 1.7305179,-0.16269 0.4432564,0.35355 1.1124433,0.42231 0.77921382,0.43281 0.10556346,0.3926 0.27503173,0.5929 z"
       sodipodi:nodetypes="ccccccccccccccccccccccccccccccccccccc" />
    <path
       inkscape:connector-curvature="0"
       style="fill:#ffffff;fill-opacity:1;stroke:#999999;stroke-width:0.1984375;stroke-miterlimit:4;stroke-dasharray:none;stroke-opacity:1"
       id="ND"
       d="m 0.04438375,145.79283 -0.16269494,-2.23141 -0.44369301,-1.80338 -0.5004567,-3.44599 -0.1209781,-2.90699 -0.4602321,-0.81416 -0.4647697,-1.37435 0.00825,-2.76338 0.1649306,-1.01179 -0.4852723,-1.44668 -7.5782619,-0.14923 -4.9188556,-0.17109 -7.014718,-0.34218 -6.071219,-0.56459 -1.850294,17.77387 14.534154,0.88468 z"
       sodipodi:nodetypes="ccccccccccccccccc" />
    <path
       inkscape:connector-curvature="0"
       style="fill:#ffffff;fill-opacity:1;stroke:#999999;stroke-width:0.1984375;stroke-miterlimit:4;stroke-dasharray:none;stroke-opacity:1"
       id="WY"
       d="m -30.363808,149.59156 -28.242313,-3.56052 -3.726254,23.40452 29.967928,3.5945 z"
       sodipodi:nodetypes="ccccc" />
    <path
       inkscape:connector-curvature="0"
       style="fill:#ffffff;fill-opacity:1;stroke:#999999;stroke-width:0.1984375;stroke-miterlimit:4;stroke-dasharray:none;stroke-opacity:1"
       id="MT"
       d="m -28.026786,126.75623 -8.115913,-0.7429 -7.741854,-0.941 -7.741851,-1.06932 -8.554535,-1.4115 -4.876083,-0.89822 -8.658132,-1.83429 -1.185074,5.6482 0.907346,1.99616 -0.36294,1.2098 0.483918,1.20979 0.84686,0.36294 1.222592,2.84942 0.713078,0.84045 0.120978,0.30245 0.907347,0.30245 0.12098,0.54441 -1.875181,4.65771 v 0.66539 l 0.665387,0.84685 h 0.241956 l 1.270284,-0.78636 0.181472,-0.30245 0.423429,0.18147 -0.06049,1.39126 0.725879,3.32694 0.786365,0.66538 0.241957,0.18147 0.48392,0.6049 -0.120981,0.90735 0.18147,0.90734 0.30245,0.24196 0.604896,-0.6049 h 0.725876 l 0.846858,0.42343 0.665387,-0.24196 h 1.088816 l 0.967833,0.42343 0.725879,-0.12098 0.120978,-0.78637 0.786365,-0.18146 0.36294,0.36293 0.12098,0.84686 0.377262,0.22083 0.499255,-2.91961 28.243125,3.55307 z"
       sodipodi:nodetypes="ccccccccccccccccccccccccccccccccccccccccccccccc" />
    <path
       inkscape:connector-curvature="0"
       style="fill:#ffffff;fill-opacity:1;stroke:#999999;stroke-width:0.1984375;stroke-miterlimit:4;stroke-dasharray:none;stroke-opacity:1"
       id="CO"
       d="m -25.163227,196.60502 1.297316,-22.84014 -30.000723,-3.34538 -3.231573,23.26723 z"
       sodipodi:nodetypes="ccccc" />
    <path
       inkscape:connector-curvature="0"
       style="fill:#ffffff;fill-opacity:1;stroke:#999999;stroke-width:0.1984375;stroke-miterlimit:4;stroke-dasharray:none;stroke-opacity:1"
       id="ID"
       d="m -86.428452,158.37786 2.320626,-9.31881 0.36294,-1.11906 0.665384,-1.57274 -0.332692,-0.60489 -0.66539,0.0302 -0.211712,-0.2722 0.120981,-0.30245 0.09073,-0.81661 1.179552,-1.45176 0.483918,-0.12098 0.302447,-0.30244 0.151226,-0.84686 0.241956,-0.18147 1.028327,-1.54249 1.028327,-1.1493 0.06049,-0.99808 -0.907346,-0.69563 -0.406281,-1.16443 3.604924,-16.75916 3.576529,0.6689 -1.166305,5.65759 0.942009,1.9805 -0.418335,1.23318 0.52119,1.22799 0.83032,0.3321 1.014767,2.52852 0.9294,1.17399 0.134209,0.30245 0.88396,0.30245 0.09759,0.55485 -1.844413,4.59743 -0.0437,0.6789 0.69615,0.87887 0.239469,-0.0129 1.299446,-0.80052 0.179234,-0.28971 0.413361,0.17432 -0.07367,1.4165 0.72476,3.32918 1.036593,0.84082 0.444812,0.57294 -0.189603,1.08052 0.282104,0.7428 0.28089,0.28873 0.655978,-0.62214 0.753576,0.0129 0.772385,0.35328 0.735547,-0.18043 1.003898,-0.0425 1.05275,0.42343 0.72588,-0.0785 0.131429,-0.80362 0.775914,-0.20236 0.33342,0.40108 0.116663,0.77919 0.376856,0.32099 -2.218795,14.18396 c 0,0 -23.274335,-4.4187 -25.124672,-4.81657 z"
       sodipodi:nodetypes="ccccccccccccccccccccccccccccccccccccccccccccccccccccccccccc" />
    <path
       inkscape:connector-curvature="0"
       style="fill:#ffffff;fill-opacity:1;stroke:#999999;stroke-width:0.1984375;stroke-miterlimit:4;stroke-dasharray:none;stroke-opacity:1"
       id="UT"
       d="m -57.05453,193.73179 -22.158597,-3.1412 5.447138,-29.77657 12.377291,2.31382 -0.392854,2.81263 -0.611616,3.48527 2.065785,0.24563 4.340891,0.47752 2.172486,0.22639 z"
       sodipodi:nodetypes="cccccccccc" />
    <path
       inkscape:connector-curvature="0"
       style="fill:#ffffff;fill-opacity:1;stroke:#999999;stroke-width:0.1984375;stroke-miterlimit:4;stroke-dasharray:none;stroke-opacity:1"
       id="AZ"
       d="m -87.372382,212.92043 -0.695063,0.57106 -0.08554,0.38495 0.128317,0.25664 5.004401,2.82299 3.207951,2.01032 3.892312,2.26695 4.448357,2.65191 3.250724,0.64159 6.601661,0.71567 4.565547,-31.51904 -22.155052,-3.1531 -0.818195,4.34246 -0.424997,0.004 -0.453673,0.69563 -0.665388,-0.0302 -0.332692,-0.72587 -0.725877,-0.0907 -0.241961,-0.30244 h -0.241956 l -0.241962,0.15122 -0.514162,0.27221 -0.03024,1.84493 -0.06049,0.45367 -0.15122,3.32694 -0.393184,0.57465 -0.151225,0.8771 0.725876,1.30053 0.332692,1.54249 0.211717,0.2722 0.272204,0.15123 -0.03025,0.60489 -0.423426,0.36294 -0.907347,0.45367 -0.514162,0.51417 -0.393184,0.96783 -0.151225,1.30053 -0.756121,0.72588 -0.544407,0.18147 0.0359,0.21957 -0.120981,0.45367 0.120981,0.21172 0.967835,0.15122 -0.151225,0.72588 -0.393184,0.57465 z"
       sodipodi:nodetypes="cccccccccccccccccccccccccccccccccccccccccccccc" />
    <path
       inkscape:connector-curvature="0"
       style="fill:#ffffff;fill-opacity:1;stroke:#999999;stroke-width:0.1984375;stroke-miterlimit:4;stroke-dasharray:none;stroke-opacity:1"
       id="NV"
       d="m -73.751228,160.78334 -6.254461,34.08435 -0.48478,0.0924 -0.416126,0.63664 -0.627841,0.003 -0.389453,-0.72588 -0.692804,-0.10012 -0.203972,-0.29306 -0.274593,-0.0143 -0.73511,0.43505 -0.08209,1.79533 -0.0958,1.52854 -0.09222,2.27351 -0.382879,0.55276 -0.645298,-0.28417 -18.277385,-27.5699 5.024203,-17.88184 z"
       sodipodi:nodetypes="cccccccccccccccccc" />
    <path
       inkscape:connector-curvature="0"
       style="fill:#ffffff;fill-opacity:1;stroke:#999999;stroke-width:0.1984375;stroke-miterlimit:4;stroke-dasharray:none;stroke-opacity:1"
       id="OR"
       d="m -86.36415,158.12587 2.341483,-9.2079 0.278021,-1.11906 0.622927,-1.48782 -0.162853,-0.30767 -0.66539,-0.0122 -0.33909,-0.44204 0.120978,-0.38737 0.133194,-0.85907 1.179552,-1.45175 0.483917,-0.29082 0.302448,-0.30245 0.393182,-0.9434 1.070784,-1.50003 0.943407,-1.02193 0.06049,-0.91316 -0.864886,-0.65317 -0.471861,-1.22836 -3.350622,-0.95567 -3.992322,-0.93759 -4.083055,0.0302 -0.120978,-0.36293 -1.451756,0.5444 -1.179549,-0.15122 -0.635143,-0.42343 -0.332693,0.18147 -1.240038,-0.0605 -0.453673,-0.36294 -1.391264,-0.5444 -0.211715,0.0302 -1.149305,-0.39318 -0.51416,0.48391 -1.63323,-0.0907 -1.57273,-1.08881 0.18147,-0.21172 0.0605,-2.05665 -0.6049,-1.02832 -1.08881,-0.15123 -0.18147,-0.66539 -0.62281,-0.12344 -1.5342,0.54472 -0.59881,1.71091 -0.85546,2.6519 -0.85545,1.71091 -1.32595,3.72122 -1.71091,3.5929 -2.13863,3.33627 -0.51327,0.76991 -0.21387,2.26695 0.10216,3.19623 z"
       sodipodi:nodetypes="ccccccccccccccccccccccccccccccccccccccccccccccccccc" />
    <path
       inkscape:connector-curvature="0"
       style="fill:#ffffff;fill-opacity:1;stroke:#999999;stroke-width:0.1984375;stroke-miterlimit:4;stroke-dasharray:none;stroke-opacity:1"
       id="WA"
       d="m -98.706592,113.6971 1.154861,0.38495 2.56636,0.72714 2.26695,0.51327 5.303811,1.49704 6.07372,1.49705 4.027783,0.84856 -3.606895,16.82375 -3.292739,-0.93274 -4.103161,-0.94475 -4.029416,0.009 -0.120537,-0.35579 -1.48146,0.57661 -1.215874,-0.19493 -0.568053,-0.41912 -0.347453,0.17409 -1.252977,-0.0371 -0.449357,-0.35709 -1.392513,-0.55888 -0.194461,0.0389 -1.161287,-0.40334 -0.50094,0.48084 -1.65785,-0.079 -1.56784,-1.09159 0.2061,-0.24679 0.0321,-2.03133 -0.60378,-1.01592 -1.08881,-0.16061 -0.17924,-0.66427 -0.60206,-0.12089 -0.94058,0.32558 -0.59882,-0.85175 0.0855,-0.76991 0.72714,-0.0855 0.42772,-1.06931 -0.68436,-0.29941 0.0428,-0.98377 1.15486,-0.17109 -0.72713,-0.72714 -0.38496,-1.882 0.1711,-0.76991 v -2.09586 l -0.4705,-0.85545 0.59881,-2.48081 0.55605,0.12831 0.64159,0.76991 0.72713,0.68436 0.85546,0.51328 1.19763,0.55604 0.81268,0.17109 0.76991,0.38496 0.89823,0.25663 0.59881,-0.0428 v -0.64159 l 0.342186,-0.29941 0.556044,-0.34218 0.08555,0.29941 0.08554,0.4705 -0.598818,0.12832 -0.08555,0.55604 0.470498,0.38495 0.299411,0.64159 0.17109,0.51328 0.384953,-0.0428 0.04277,-0.34218 -0.256635,-0.34218 -0.128318,-0.85545 0.213863,-0.4705 -0.17109,-0.38496 v -0.59881 l 0.4705,-0.941 -0.29941,-0.68437 -0.641591,-1.28317 0.08555,-0.21387 z m -2.502088,1.58193 0.53467,-0.0428 0.12831,0.36357 0.40634,-0.42773 h 0.62021 l 0.213863,0.40634 -0.406341,0.44912 0.171093,0.21386 -0.192478,0.53466 -0.363567,0.10693 c 0,0 -0.23525,0.0214 -0.23525,-0.0642 0,-0.0855 0.384953,-0.68436 0.384953,-0.68436 l -0.449113,-0.14971 -0.0855,0.38496 -0.19247,0.17109 -0.40635,-0.59882 z"
       sodipodi:nodetypes="cccccccccccccccccccccccccccccccccccccccccccccccccccccccccccccccccccccccccccccccccccccscccccc" />
    <path
       inkscape:connector-curvature="0"
       style="fill:#ffffff;fill-opacity:1;stroke:#999999;stroke-width:0.1984375;stroke-miterlimit:4;stroke-dasharray:none;stroke-opacity:1"
       id="CA"
       d="m -87.429736,212.8064 1.04248,-0.12928 0.393181,-0.53219 0.144076,-0.77816 -0.939673,-0.15614 -0.136041,-0.1768 0.126339,-0.53771 -0.04214,-0.15602 0.50868,-0.16393 0.805069,-0.74948 0.153871,-1.32162 0.365099,-0.90015 0.514162,-0.57315 0.931034,-0.4206 0.437724,-0.42461 0.01818,-0.55797 -0.262819,-0.15346 -0.270708,-0.28383 -0.305652,-1.5474 -0.710459,-1.27796 0.149704,-0.92736 -0.640181,-0.27234 -18.27247,-27.56387 5.001179,-17.88623 -17.748209,-4.15342 -0.3987,1.25234 -0.0428,1.96754 -1.36873,3.12241 -0.81268,0.68436 -0.0855,0.29941 -0.4705,0.21386 -0.38496,1.11209 -0.21386,0.85545 0.72714,1.11209 0.42772,1.11209 0.29941,0.941 -0.0855,1.71091 -0.4705,0.81268 -0.17109,1.53982 -0.25664,0.98377 0.4705,1.02654 0.72713,1.19763 0.59882,1.28319 0.34218,1.06931 -0.0855,0.85546 -0.0855,0.12831 v 0.55605 l 1.49704,1.66813 -0.12831,0.64159 -0.17109,0.59882 -0.17109,0.51327 0.0428,2.18141 0.55604,0.98377 0.51327,0.68436 0.72714,0.12832 0.25664,0.72713 -0.29941,0.941 -0.55605,0.42773 h -0.29941 l -0.21386,1.02654 0.12832,0.76991 0.85545,1.15486 0.42773,1.4115 0.38495,1.24041 0.34218,0.81268 0.89823,1.53982 0.38495,0.68436 0.12832,0.7699 0.42773,0.25664 v 0.64159 l -0.21386,0.51327 -0.4705,1.882 -0.12832,0.51327 0.64159,0.72714 1.11209,0.12831 1.19763,0.47051 1.02655,0.55604 h 0.7699 l 0.76991,0.81268 0.68436,1.28318 0.29941,0.59882 1.02655,0.55604 1.28318,0.21386 0.38495,0.55605 0.17109,0.85545 -0.38495,0.17109 0.0855,0.25664 0.85546,0.21386 0.72713,0.0428 0.83606,-0.44632 1.02654,1.11209 0.21386,0.59882 0.684364,1.11209 0.08554,0.85545 v 2.48082 l 0.128318,0.4705 2.651905,0.38495 5.218263,0.72714 z m -23.319104,-11.5667 0.34218,0.40634 -0.0428,0.34218 -0.85546,-0.0214 -0.14971,-0.3208 -0.17109,-0.38496 z m 0.51327,0 0.3208,-0.17109 0.941,0.55604 0.81268,0.3208 -0.23525,0.17109 -1.19764,-0.0642 -0.42773,-0.42773 z m 5.47492,5.23967 0.4705,0.6202 0.21387,0.25664 0.40634,0.14971 0.1497,-0.38496 -0.25664,-0.4705 -0.70575,-0.53466 -0.27802,0.0428 z m -0.38496,2.28834 0.47051,0.83407 0.32079,0.51328 -0.38495,0.0642 -0.34219,-0.3208 c 0,0 -0.19247,-0.38495 -0.19247,-0.49189 0,-0.10693 0,-0.57743 0,-0.57743 z"
       sodipodi:nodetypes="ccccccccccccccccccccccccccccccccccccccccccccccccccccccccccccccccccccccccccccccccccccccccccccccccccccccccccccccccccccccccccccccccscc" />
  </g>
</svg>
